<svg xmlns="http://www.w3.org/2000/svg" viewBox="0 0 926 8.53"><defs><style>.cls-1{fill:#788274;}</style></defs><title>bodyBar</title><g id="Layer_2" data-name="Layer 2"><g id="Separators"><path class="cls-1" d="M0,3.87c19.29-.79,38.58-1.31,57.88-1.73q14.47-.33,28.94-.56c9.65-.15,19.29-.33,28.94-.41l28.94-.3L173.63.72c9.65-.08,19.29,0,28.94,0s19.29.15,28.94.23l28.94.5L289.38,2l28.94.58L347.25,3q28.94.17,57.88-.06l14.47-.13,14.47-.23L463,2.08c19.29-.34,38.58-.77,57.88-1S559.46.63,578.75.5L636.63.1C646.27,0,655.92,0,665.56,0H694.5c38.58.19,77.17.47,115.75,1.12l28.94.5,28.94.6c9.65.2,19.29.49,28.94.75s19.29.53,28.94.89v.8c-9.65.36-19.29.63-28.94.89s-19.29.56-28.94.75l-28.94.6-28.94.5c-38.58.64-77.17.92-115.75,1.12H665.56c-9.65,0-19.29,0-28.94-.1L578.75,8c-19.29-.13-38.58-.27-57.87-.55s-38.58-.68-57.87-1L434.06,6l-14.47-.23-14.47-.13q-28.94-.26-57.87-.06l-28.94.35-28.94.58-28.94.61-28.94.5c-9.65.09-19.29.25-28.94.23s-19.29.06-28.94,0l-28.94-.14-28.94-.3C106.1,7.29,96.46,7.11,86.81,7S67.52,6.62,57.88,6.4C38.58,6,19.29,5.45,0,4.67Z"/></g></g></svg>