<svg xmlns="http://www.w3.org/2000/svg" viewBox="0 0 219.41 150.95"><defs><style>.cls-1,.cls-5{fill:#2f352c;}.cls-1{stroke:#fffbdf;}.cls-1,.cls-3,.cls-5{stroke-miterlimit:10;}.cls-2{fill:#a9d1d3;}.cls-3{fill:none;stroke:#faffe6;}.cls-4{fill:#faffe6;}.cls-5{stroke:#ffece3;}</style></defs><title>lampBugAbout</title><g id="Layer_2" data-name="Layer 2"><g id="clam"><path class="cls-1" d="M92,66A69.07,69.07,0,0,1,165.78.66,57.09,57.09,0,0,1,218.83,60.5a44.2,44.2,0,0,1-47.25,41.85,36.54,36.54,0,0,1-34-38.29,28.29,28.29,0,0,1,30.24-26.78A23.38,23.38,0,0,1,189.6,61.77a18.11,18.11,0,0,1-19.35,17.14,15,15,0,0,1-13.91-15.69,11.59,11.59,0,0,1,12.39-11,9.58,9.58,0,0,1,8.9,10"/><ellipse class="cls-2" cx="112.49" cy="62.31" rx="44" ry="43"/><path class="cls-3" d="M195.49,37.31a30.68,30.68,0,0,0-5-16c-1.23-1.84-8-12.07-18-12-5.54,0-9.35,3.25-16,9a80.46,80.46,0,0,0-16,19"/><path class="cls-4" d="M22.66,52.3A1.89,1.89,0,1,0,20.37,54a1.53,1.53,0,0,0,1.85-1,1.52,1.52,0,0,0-1-1.85q1.29.6.23,2l-.76.2a1.24,1.24,0,0,1-1-1,1.5,1.5,0,0,0,1.5,1.5,1.54,1.54,0,0,0,1.5-1.5Z"/><path class="cls-4" d="M194.67,40c-.27-2.68-2-8.43-5.85-7.38-3.4.94-2.6,5.34-.32,6.94,1.15.81,3.2,1.83,4.65,1.45,1.71-.45,1.68-2.15,1.8-3.57a8,8,0,0,1,.36-2.23c.17-.44,1.13-1.85,1.78-1.52,1.11.57-1,2-1.33,2.43a6,6,0,0,0-1.22,5.25c.35,1.9,3.25,1.09,2.89-.8-.57-3.08,4-4.08,3-7.34a3.82,3.82,0,0,0-5-2.27c-2.49,1-3.23,3.69-3.44,6.1q0,.76-.09,1.53.65-.64,0-.71c-.52-.68-2-.34-2.33-1.44-.52-1.64.91,0,1,.15A7.66,7.66,0,0,1,191.67,40c.19,1.9,3.19,1.92,3,0Z"/><path class="cls-4" d="M196.38,24.76c-7.76-9.4-22.24,3.43-20.9,13,1.77,12.65,15,20.57,26.7,15.54,4.93-2.12,10-6.29,12-11.39,2.31-5.77-.6-11-4.68-15.09-8.08-8.14-22.89-11.37-29.66.16a1.5,1.5,0,0,0,2.59,1.51c4.77-8.13,15-7.22,21.77-2.31C208,28.92,212,33,211.87,37.91s-4.21,8.81-8.11,11.2c-8.36,5.11-17.76,3-22.8-5.45-2.34-3.9-3.75-8.48-1.12-12.6,2.77-4.32,10.12-9.38,14.41-4.18,1.23,1.49,3.34-.64,2.12-2.12Z"/><path class="cls-4" d="M95.21,67.76a25.61,25.61,0,0,1-.35-10.15L92.12,58a10.06,10.06,0,0,1-.46,11h2.59c-1-1.44-2.42-4.14-1.53-5.88.62-1.2.44,1.5.41,1.92a8.27,8.27,0,0,1-1,3.39l2.36-.3a8.94,8.94,0,0,1-2.13-7.41c.19-.94,0-.62.2,0A14.2,14.2,0,0,1,93,62.31a10.22,10.22,0,0,1-.51,5l2.74-.36a8.49,8.49,0,0,1-.93-9.08l-2.36.3c1.81,1.43,2.08,3.57,1.85,5.76a4.3,4.3,0,0,1-.33,1.59c-.4.7-.38.82-.78.25-.8-1.14-.14-4,.16-5.2.47-1.87-2.42-2.67-2.89-.8-.64,2.55-1.06,6.28.53,8.6A2.87,2.87,0,0,0,95,68.6c3.09-3.1,2.36-10-1-12.57a1.52,1.52,0,0,0-2.36.3,11.45,11.45,0,0,0,.93,12.11,1.52,1.52,0,0,0,2.74-.36,12.37,12.37,0,0,0-.22-9c-.73-1.57-2.25-3.1-4.07-2s-2,4.2-1.79,6.11a12.33,12.33,0,0,0,3.08,7,1.51,1.51,0,0,0,2.36-.3c1.24-2.44,3-11.2-2-11-1.89.07-3,2.14-3.21,3.78a11.44,11.44,0,0,0,2.06,7.79,1.52,1.52,0,0,0,2.59,0,13.06,13.06,0,0,0,.46-14c-.6-1-2.52-1-2.74.36a29.49,29.49,0,0,0,.35,11.75c.44,1.88,3.33,1.08,2.89-.8Z"/><path class="cls-4" d="M131.56,66.42a10.07,10.07,0,0,1-.44-8l-2.74.36a9.64,9.64,0,0,1,.36,10.3h2.59a10.51,10.51,0,0,1-.25-11.36h-2.59a13.09,13.09,0,0,1,1.95,7.88.57.57,0,0,0,.15.68,11.22,11.22,0,0,1-.35-1.38A12.45,12.45,0,0,1,130,62q.67-1.18-.26-1.2-1-.38.08,1a6.73,6.73,0,0,1-1,5.64h2.59a7.28,7.28,0,0,1-1-2,3,3,0,0,0-1.1-2c.8,1.76,3.38.23,2.59-1.51a2.42,2.42,0,0,0-4.11-.41c-1.71,2.06-.14,5.6,1.06,7.48a1.52,1.52,0,0,0,2.59,0c1.74-2.68,2.88-8.43-.23-10.73a2.3,2.3,0,0,0-3.25.48c-1.23,1.47-1,3.79-.78,5.56s.55,4.49,2.22,5.45a2.42,2.42,0,0,0,3.29-.9c2.38-3.41.3-9.46-1.53-12.64a1.51,1.51,0,0,0-2.59,0,13.52,13.52,0,0,0,.25,14.39,1.52,1.52,0,0,0,2.59,0A12.66,12.66,0,0,0,131,57.28a1.52,1.52,0,0,0-2.74.36A13.09,13.09,0,0,0,129,67.93c.85,1.73,3.44.21,2.59-1.51Z"/><path class="cls-4" d="M110.17,86.07a3.4,3.4,0,0,0,4.92-2,.75.75,0,0,0-1.45-.4,1.88,1.88,0,0,1-2.72,1.13.75.75,0,0,0-.76,1.3Z"/><path class="cls-5" d="M113.54,117.93a64.5,64.5,0,0,1-87.06,24.53A50.14,50.14,0,0,1,7.12,73.63a41.28,41.28,0,0,1,55.72-15.7A32.09,32.09,0,0,1,75.23,102a26.42,26.42,0,0,1-35.66,10,20.54,20.54,0,0,1-7.93-28.19A16.91,16.91,0,0,1,54.46,77.4a13.14,13.14,0,0,1,5.08,18,10.82,10.82,0,0,1-14.61,4.12A8.41,8.41,0,0,1,41.68,88"/><path class="cls-3" d="M17,52.81c-.4-2.36-2.54-16.54,7-28,10.57-12.69,29.42-14.8,40-9,4.74,2.6,10,8,11,9a64.6,64.6,0,0,1,8,10"/><path class="cls-4" d="M18.34,50.94q0-1.38,1.54-.95a7,7,0,0,1,1.7.82c1.46,1.23,1,1.72-.19,3-1.47,1.59-3,3.12-4.51,4.67l2.51.66a10.17,10.17,0,0,0-2.11-3.55c-1.09-1.27-3.21-3.09-2.21-5l-2.36.3c2.14,1.71,2.48,6.66,6.42,5.36a2.8,2.8,0,0,0,2-2.5,3,3,0,0,0-.43-1.64,3.85,3.85,0,0,0-.54-.75c-.46-.48-.2-.76-.49-.14.83-1.73-1.76-3.26-2.59-1.51-.72,1.5-.05,2.21.72,3.48.42.7-.49-.52-.59-.68a14.91,14.91,0,0,1-.68-1.45,6.31,6.31,0,0,0-1.73-2.29,1.52,1.52,0,0,0-2.36.3,5.44,5.44,0,0,0,.12,5.3c1,2,3.19,3.33,3.91,5.53a1.52,1.52,0,0,0,2.51.66c2-2.09,4.72-4.18,6.22-6.68,1.38-2.29.22-4.15-1.8-5.45S19,46.18,17,47.61a3.57,3.57,0,0,0-1.21,4.84c1,1.65,3.59.14,2.59-1.51Z"/><path class="cls-4" d="M6.86,39.95a20.54,20.54,0,0,1,11.3-7.14c5.87-1.24,10.08,2.21,13,7.08,4.66,7.84,4.63,18.44-1,25.79-3.46,4.54-9.32,7.54-15,5.58-4.69-1.6-8-6.22-9.7-10.67A24.87,24.87,0,0,1,8.68,37.26c1.13-1.57-1.47-3.07-2.59-1.51-6.47,9-7.13,21.73-.8,31.05,6.8,10,19.86,10.43,27.28.72,7-9.18,6.32-22.84-.66-31.82C24.3,25.92,12,29.3,4.74,37.82c-1.24,1.46.87,3.59,2.12,2.12Z"/></g></g></svg>