<svg xmlns="http://www.w3.org/2000/svg" viewBox="0 0 173.29 127"><defs><style>.cls-1,.cls-2,.cls-6{fill:#2f352c;stroke-miterlimit:10;}.cls-1{stroke:#e2d6ea;}.cls-2{stroke:#f1c3ff;}.cls-3{fill:#faffe6;}.cls-4{fill:#a9d1d3;}.cls-5{fill:#f7d4f9;}.cls-6{stroke:#e3e8ff;}</style></defs><title>lampBugAmongShells</title><g id="Layer_2" data-name="Layer 2"><g id="clam"><path class="cls-1" d="M59.56,85.51a36.07,36.07,0,0,1-51-1,28.86,28.86,0,0,1,.8-40.8A23.08,23.08,0,0,1,42,44.35a18.47,18.47,0,0,1-.51,26.11,14.77,14.77,0,0,1-20.89-.41,11.82,11.82,0,0,1,.33-16.71,9.46,9.46,0,0,1,13.37.26,7.56,7.56,0,0,1-.21,10.7,6.05,6.05,0,0,1-8.56-.17,4.84,4.84,0,0,1,.13-6.85"/><path class="cls-2" d="M107.18,59.07a36.07,36.07,0,0,1,41.17-30.12,28.86,28.86,0,0,1,24.09,32.93A23.08,23.08,0,0,1,146.1,81.16a18.47,18.47,0,0,1-15.42-21.08,14.77,14.77,0,0,1,16.86-12.34,11.82,11.82,0,0,1,9.87,13.49,9.46,9.46,0,0,1-10.79,7.9,7.56,7.56,0,0,1-6.32-8.63,6.05,6.05,0,0,1,6.91-5.05,4.84,4.84,0,0,1,4,5.53"/><path class="cls-3" d="M91,32.18l-.06.51L92,31.25l-.62.1L93.1,32c-1-1.51.65-5.76,1.22-7.3a29.16,29.16,0,0,1,4.82-8.25A44,44,0,0,1,111,6.55c6.88-4,13.46-4.54,20.41-.3,1.92,1.17,5.69,3.51,6.75,5.76l.11,3.59-1.25.29q-4.15,2.05-2.91-1.54-.55-3.32,1.45-1c1.54,1.17,3-1.44,1.51-2.59-2.9-2.19-8.16-4.07-10.44.17-1.61,3,.57,6.44,3.37,7.67,3,1.32,10,1,12.07-2.06,2.7-4-3.65-8.91-6.29-10.94-4.47-3.45-10.18-6.13-16-5.57s-11.47,4.18-16,7.73A38.94,38.94,0,0,0,92.73,20.9c-1.53,3.1-4.34,9.38-2.22,12.66a1.57,1.57,0,0,0,1.69.69l.62-.1a1.53,1.53,0,0,0,1.1-1.45l.06-.51c.22-1.92-2.78-1.9-3,0Z"/><ellipse class="cls-4" cx="92.56" cy="47.51" rx="34" ry="32"/><path class="cls-3" d="M68.94,29.66c-.41.37-7.28-3.51-8.68-4a34.49,34.49,0,0,0-10.09-1.89c-4.91-.16-10.34.87-14,4.42-5.92,5.8-9.77,22.86.64,26.34,4.63,1.55,9.31-1.55,11.06-5.81,1.34-3.27,1.66-9.6-1.34-12.19-6.28-5.44-16.84,8.16-7,11.7,1.82.65,2.6-2.24.8-2.89q-2.44-7.79,2.7-5.39,3.52-.32,2.74,3.32a10.21,10.21,0,0,1-1.17,5.37c-4.11,6.73-11.2,1.46-11.21-4.74,0-6.79,3.38-14.41,10.18-16.45,5.92-1.78,13.07-.33,18.56,2.18,2.77,1.26,6.05,4.72,8.9,2.15,1.44-1.3-.69-3.41-2.12-2.12Z"/><path class="cls-3" d="M79.54,53.16A4.82,4.82,0,1,1,88.62,50c.3.91,1.75.52,1.45-.4a6.32,6.32,0,1,0-12,4c.31.91,1.76.52,1.45-.4Z"/><path class="cls-3" d="M110.84,46.18c-1.31-1.33.32-3.51,1.9-3.59,2.1-.11,3.59,2.09,4.2,3.81.32.9,1.77.51,1.45-.4-.94-2.65-3.62-5.86-6.82-4.69-2.32.85-3.68,4-1.79,5.93.68.69,1.74-.37,1.06-1.06Z"/><path class="cls-3" d="M98.61,65.07a5.32,5.32,0,0,0,5.61.24c.85-.47.09-1.76-.76-1.3a3.81,3.81,0,0,1-4.1-.24c-.8-.55-1.55.75-.76,1.3Z"/><path class="cls-5" d="M74.22,59.74a12.08,12.08,0,0,1,4,.2l-1.1-1.45,0,.16.2-.76a.85.85,0,0,1,1-.27l.54.54,0,0V59l-.91.47-.66-.39.14.11V57.08a.9.9,0,0,1,1-.08q.15.15,0,0A.79.79,0,0,1,78,58l-2.26-1.3c-.06.52-.63.75-1.07.74l1.45,1.9L77,57.22a1.51,1.51,0,0,0-1-1.85,1.54,1.54,0,0,0-1.85,1l-.86,2.12c-.38.94.57,1.87,1.45,1.9a4,4,0,0,0,4.07-3.74,1.51,1.51,0,0,0-2.26-1.3c-2.88,1.85.82,6.19,3,3.8a1.51,1.51,0,0,0,0-2.12,2.15,2.15,0,0,0-2.65-.23,2,2,0,0,0,1.56,3.67,2.14,2.14,0,0,0,1.68-2A1.5,1.5,0,0,0,79,57a14.57,14.57,0,0,0-4.82-.31,1.54,1.54,0,0,0-1.5,1.5,1.51,1.51,0,0,0,1.5,1.5Z"/><path class="cls-5" d="M121.56,51.51h-.43a1.5,1.5,0,0,0,0,3h.43a1.5,1.5,0,0,0,0-3h-.43a1.5,1.5,0,0,0,0,3h.43a1.5,1.5,0,0,0,0-3Z"/><path class="cls-6" d="M37.12,126.6a36.07,36.07,0,0,1-8.25-50.34,28.86,28.86,0,0,1,40.27-6.6,23.08,23.08,0,0,1,5.28,32.22,18.47,18.47,0,0,1-25.77,4.22,14.77,14.77,0,0,1-3.38-20.62,11.82,11.82,0,0,1,16.49-2.7A9.46,9.46,0,0,1,63.92,96,7.56,7.56,0,0,1,53.37,97.7,6.05,6.05,0,0,1,52,89.26a4.84,4.84,0,0,1,6.76-1.11"/></g></g></svg>