<svg xmlns="http://www.w3.org/2000/svg" viewBox="0 0 247.7 210.19"><defs><style>.cls-1{fill:#41493a;}.cls-2{fill:#2f352c;}.cls-3{fill:#f7d4f9;}.cls-4{fill:#a9d1d3;opacity:0.94;}.cls-5{fill:#faffe6;}</style></defs><title>lampBugWelcomeShell</title><g id="Layer_2" data-name="Layer 2"><g id="clam"><path class="cls-1" d="M2.73,81.69C-1.46,74.18-1.17,65,6,58.51s22-8.08,29.08-1.95C26.75,50.28,29,39,36.57,31.74c14-13.45,44.19-14.87,59-2.79C93,15.68,108,1.5,126.07.11s35.19,10.32,34.88,23.81c9.12-8.34,26.49-10.86,38.42-5.56s16.89,17.71,11,27.47c14.31-3.52,31.09,2.53,35.81,12.91,3.4,7.48.9,16.09-4.45,23.19s-11.06,15.91-21.36,18.46c-42.6,10.55-71.88,27.8-95.56,35.48-16,5.2-14.59,7-16.6,6.37C100.58,139.7,9.51,77.7,2.73,81.69"/><path class="cls-2" d="M9.53,148c-3.83,5.74-3.31,12.77,3.78,17.71s21.42,6.13,28,1.42c-7.86,4.83-5.42,13.43,2.08,19,13.87,10.25,42.92,11.26,56.84,2-2.08,10.15,12.74,21,30.14,22s33.59-8,32.93-18.29c9,6.35,25.78,8.24,37.12,4.16s15.78-13.58,9.82-21c13.86,2.66,29.85-2,34.12-10,3.08-5.73.44-12.3-4.9-17.72s-11.07-12.14-21-14.06c-41.27-8-69.92-21.08-92.91-26.89-15.57-3.93-14.23-5.35-16.14-4.83-7.25,2-93.23,49.59-99.87,46.55"/><polygon class="cls-3" points="81.93 128.66 40.93 151.66 129.93 183.66 203.93 155.66 166.12 125.58 81.93 128.66"/><circle class="cls-4" cx="120.43" cy="127.16" r="32.5"/><path class="cls-5" d="M134.93,109.66c.7-1.84,4.32-10.76,14-15,9.32-4.08,18.86-1.45,24.26,1.57l.74.43a6.42,6.42,0,0,0,0,7c2,2.82,6.43,3.13,9,1a6.79,6.79,0,0,0,0-10,6.43,6.43,0,0,0-5-1c-3,1-5.17-1.12-9-2-5-1.14-13.58-3.36-23,1-2.91,1.34-9.84,5.55-11,12C134.42,107.55,134.24,108.09,134.93,109.66Z"/><path class="cls-5" d="M107.67,104.66c-.7-1.84-4.32-10.76-14-15-9.32-4.08-18.86-1.45-24.26,1.57l-.74.43a6.42,6.42,0,0,1,0,7c-2,2.82-6.43,3.13-9,1a6.79,6.79,0,0,1,0-10,6.43,6.43,0,0,1,5-1c3,1,5.17-1.12,9-2,5-1.14,13.58-3.36,23,1,2.91,1.34,9.84,5.55,11,12C108.19,102.55,108.37,103.09,107.67,104.66Z"/><path class="cls-5" d="M109.93,127.16c0,3-1.57,5.5-3.5,5.5s-3.5-2.46-3.5-5.5,2.07-6.5,4-6.5S109.93,124.13,109.93,127.16Z"/><path class="cls-5" d="M137.93,127.66c0,2.76-1.57,5-3.5,5s-3.5-2.24-3.5-5,2.07-1,4-1S137.93,124.9,137.93,127.66Z"/><path class="cls-5" d="M115.93,144.66a4.18,4.18,0,0,0,4,3c2.44,0,4.31-2.15,4-3C123.7,144,122.1,143.62,115.93,144.66Z"/></g></g></svg>