<svg xmlns="http://www.w3.org/2000/svg" viewBox="0 0 450.07 48.09"><defs><style>.cls-1{fill:#f0f1f2;}.cls-2{fill:#fcfae6;}</style></defs><title>logo</title><g id="Layer_2" data-name="Layer 2"><g id="Logo"><path class="cls-1" d="M79,11.14s12.71-5.87,18.09,0-7.82,5.38-7.82,5.38l-.49,20s6.84-2.44,9.29,5.38-22.49,3.42-22.49,3.42-6.36-7.82,4.4-7.82l1.47-20S71.62,18.48,79,11.14Z"/><path class="cls-1" d="M103.89,45.85s-3.42-28.36,2.93-24,1.47,6.36,1.47,6.36S119.54,12.61,120,45.85c0,0-5.38,1-5.87-5.87s-6.36-6.84-6.36-6.84S111.71,51.23,103.89,45.85Z"/><path class="cls-1" d="M127.91,15.8s7.85-17.94,7.63,1.47c0,0,17.5,7.33-.75,6.21,0,0-8.88,23.3,7.77,12.21,0,0,11.17,1.35,2.44,5.63s-19.41,11.75-19.11-19.55C125.89,21.76,112.28,14.78,127.91,15.8Z"/><path class="cls-1" d="M157,35.12s30.57,4.66,7.72-11.36c0,0-13.9,1.46-13,10.19S161,46.19,161,46.19s11.43-1.75,10.5-4.08S159.8,48.23,157,35.12Zm9.57-2-8.65-2S164.43,24.34,166.59,33.08Z"/><path class="cls-1" d="M178.8,25.48c1-1.63,2.18-3.21,2.89-2.91.92.38.3,3.56,1.29,4s2.38-3.45,4.82-3.64c1.88-.15,3.42,2,6.1,5.83,1.5,2.13,2.27,3.24,1.93,4-.56,1.25-3.91,1.33-6.1-.36-1.48-1.14-1.57-2.42-2.57-2.55-1.9-.24-3.75,4.13-3.86,4.37-2.64,6.36.2,12-1.61,13.11-1.15.71-3.48-.89-4.5-2.91s-.45-4.19.32-8.74C177.93,33.23,178.43,29.76,178.8,25.48Z"/><path class="cls-1" d="M219,22.7c-2-2.25-13.35-1-17.15,5.84-2.9,5.2-.54,12,4.76,15,6,3.36,14.68,1.35,15.25-.83.36-1.38-3-7.35-5.24-5-4.06,4.29-7.51-1-7.62-4.59-.05-1.59,4.76-3.76,8.58-5C219.61,27.46,220.08,23.91,219,22.7Z"/><path class="cls-1" d="M227.08,43.91c-.34-28.76,1-35.3,2.47-35.5,1.83-.25,4.14,9.88,4.94,14.1.47,2.49,3.74,19.91-1.23,22.85C232.41,45.87,230.63,46.36,227.08,43.91Z"/><path class="cls-1" d="M260.32,20.6c-.57-.45-2.33-1.85-3.57-1.17-1.07.59-1.48,2.6-1.07,5.05a10.45,10.45,0,0,0-12.84,2.72c-4,5.12-2.59,13.49,2.14,17.11,4.21,3.22,9.35,1.4,10,1.17.29.47,1.44,2.2,3.21,2.33s3-1.28,3.57-1.94C266.41,40.7,266.46,25.48,260.32,20.6ZM256,38.87a5.06,5.06,0,0,1-6.42-.39,6.28,6.28,0,0,1-1.43-7c1.49-3.31,6.08-4.39,8.56-1.94S258.78,36.83,256,38.87Z"/><path class="cls-1" d="M270.63,25.44c1.49-.35,3.07-.46,3.73.45,1,1.35-.6,4.13,0,4.55s2.39-3.24,5.39-3.64c2.5-.33,4.55,1.8,5,2.27a8.49,8.49,0,0,1,2.07,5.46c0-.31.76-4.37,4.15-5.91,1.61-.73,4.15-1,5.81.45.44.39,1.46,1.51,1.66,7.73a59.72,59.72,0,0,1-.41,9.1c-.68.44-1.49.8-2.07.45-1.8-1.05.85-7.33-1.24-9.1-1.35-1.14-4.22,0-5.81,1.82-1.95,2.26.36,6-1.24,7.28a2.13,2.13,0,0,1-2.49,0c-1.72-1.35.53-5.15-1.24-8.64-.85-1.67-2.55-3.16-4.15-3.18-2.76-.05-5.89,4.24-6.64,10.92-1.69.63-2.7.4-3.32,0C265.45,42.7,270.39,26.22,270.63,25.44Z"/><path class="cls-1" d="M303.35,44s-3.39-24.82,2.9-21,1.45,5.56,1.45,5.56S318.84,14.92,319.33,44c0,0-5.32.86-5.81-5.14s-6.29-6-6.29-6S311.1,48.73,303.35,44Z"/><path class="cls-1" d="M327.11,33.48s32.48,4.91,8.2-12c0,0-14.76,1.54-13.78,10.75s9.84,12.9,9.84,12.9,12.14-1.84,11.15-4.3S330.06,47.29,327.11,33.48Zm10.17-2.15-9.19-2.15S335,22.12,337.28,31.33Z"/><path class="cls-1" d="M372.18,20.28s3.77-15.51,6.79,0c0,0,16.23,3.17.38,5.06,0,0-3.77,19.94,8.68,8.55,0,0,9.81-.63,3,4.11s-14.72,12.34-19.63-12.66C371.43,25.34,358.59,21.86,372.18,20.28Z"/><path class="cls-1" d="M349.28,18.82s4.1-17.56,7.38,0c0,0,17.64,3.58.41,5.73,0,0-4.1,22.58,9.44,9.68,0,0,10.67-.72,3.28,4.66s-16,14-21.33-14.34C348.46,24.55,334.51,20.61,349.28,18.82Z"/><path class="cls-1" d="M400.06,30.27s37.43,5.86,9.45-14.29c0,0-17,1.83-15.88,12.82S405,44.19,405,44.19s14-2.2,12.85-5.13S403.46,46.76,400.06,30.27Zm11.72-2.56-10.59-2.56S409.13,16.72,411.78,27.71Z"/><path class="cls-1" d="M444.54,3c-.76-.91-2.86-3.41-4.3-2.89-2.82,1-1.19,12.89.72,23.12a36.23,36.23,0,0,0-6.46,1.44c-3.92,1.26-9.85,3.29-10.76,6.5-1.69,6,2.84,12.13,12.19,11.56,1.6,1.48,3.32,2.45,5,2.17C448.83,43.55,455,15.42,444.54,3Zm-8.61,33.23c-1.56.73-5-1-5-3.61s3.46-4.34,5-3.61C437.9,29.89,437.9,35.27,435.94,36.19Z"/><ellipse class="cls-2" cx="17.73" cy="31.55" rx="9.32" ry="20.14" transform="translate(-18.41 29.63) rotate(-57.62)"/><ellipse class="cls-2" cx="45.01" cy="22.59" rx="20.14" ry="9.32" transform="translate(1.82 48.49) rotate(-57.6)"/><ellipse class="cls-2" cx="26.21" cy="22.11" rx="9.32" ry="20.14" transform="translate(-7.72 17.19) rotate(-31.9)"/><ellipse class="cls-2" cx="50.48" cy="31.27" rx="20.14" ry="9.32" transform="translate(-8.89 29.98) rotate(-30.54)"/><ellipse class="cls-2" cx="35.96" cy="21.65" rx="9.32" ry="20.14"/><ellipse class="cls-1" cx="34.2" cy="41.54" rx="7.3" ry="6.55"/></g></g></svg>