<svg xmlns="http://www.w3.org/2000/svg" viewBox="0 0 42.02 29.24"><defs><style>.cls-1{fill:#fcfbe9;}</style></defs><title>navVineTFH2</title><g id="Layer_2" data-name="Layer 2"><g id="nav"><path class="cls-1" d="M41,2.28C41,2.2,41,2,41,2l0,.33Z"/><path class="cls-1" d="M40.61,1.67a1.42,1.42,0,0,0-.11.75c.07-.32.09-.19.16-.56.06,0,.1.11.09.23,0-.08.09.07.12-.14s-.18-.27-.28-.05A.6.6,0,0,1,40.61,1.67Z"/><path class="cls-1" d="M34.79,1.15l0,0A.07.07,0,0,0,34.79,1.15Z"/><path class="cls-1" d="M31.19,1s0,0,0-.07S31.18.94,31.19,1Z"/><path class="cls-1" d="M30.57.61l0,0S30.58.58,30.57.61Z"/><path class="cls-1" d="M34.79,1.15,34.7,1C34.69,1.16,34.74,1.13,34.79,1.15Z"/><path class="cls-1" d="M39.8,2.47a.21.21,0,0,0,.05-.09l0,0Z"/><path class="cls-1" d="M36.38.89h0s0-.08,0-.13Z"/><path class="cls-1" d="M37.6.83s0,.27,0,.39A.34.34,0,0,1,37.61,1,1.66,1.66,0,0,0,37.6.83Z"/><path class="cls-1" d="M39.53,1.33l0,0Z"/><path class="cls-1" d="M35.51.82a.69.69,0,0,0,0-.1A.48.48,0,0,0,35.51.82Z"/><path class="cls-1" d="M1.42,2.94s0,0,0-.05S1.41,2.94,1.42,2.94Z"/><path class="cls-1" d="M0,1.55l0,0c0-.05,0-.11,0-.16Z"/><path class="cls-1" d="M29.45.25h0S29.47.23,29.45.25Z"/><path class="cls-1" d="M19.11.45c.12.25-.19.32,0,.6C19.08.95,19.26.62,19.11.45Z"/><path class="cls-1" d="M39.77,2.43h0S39.76,2.44,39.77,2.43Z"/><path class="cls-1" d="M19.1,1.06h0l0,0Z"/><path class="cls-1" d="M26.85.42a.64.64,0,0,0,0,.12A.43.43,0,0,0,26.85.42Z"/><path class="cls-1" d="M28.79.82l0,0A.09.09,0,0,0,28.79.82Z"/><path class="cls-1" d="M25.85.81s0-.06-.07,0v0S25.82.77,25.85.81Z"/><path class="cls-1" d="M24.81.81l0,.06,0,0Z"/><path class="cls-1" d="M4.59,2.8a1.71,1.71,0,0,1,0-.25C4.56,2.75,4.41,2.82,4.59,2.8Z"/><path class="cls-1" d="M39.8,2.31c0,.07,0,.11,0,.12l0,0A.34.34,0,0,0,39.8,2.31Z"/><path class="cls-1" d="M25.81,3l-.17,0A.33.33,0,0,0,25.81,3Z"/><path class="cls-1" d="M12.08,2.76l0,0S12.07,2.79,12.08,2.76Z"/><path class="cls-1" d="M25.15,3a.52.52,0,0,0-.09-.19.38.38,0,0,0,0,.07Z"/><path class="cls-1" d="M4.54,2.55h0Z"/><path class="cls-1" d="M3.45,3.21c.16,0,.07-.36.11-.57.19-.1.09.27.15.46.12-.1.21-.44.3-.42a.32.32,0,0,1,0,.16c.12-.29.37,0,.51-.38a.42.42,0,0,1,0,.09,3.28,3.28,0,0,1,0-.51c.07,0,.13-.23.16,0,0,0,0,.09-.07.17l.07-.1c.07.35-.1.12-.1.38.14-.11.31-.4.42-.3,0,.34-.26.11-.11.42l-.17-.13c.13.54-.1,0,0,.54.23.1.25-.17.48-.07.05-.19,0-.28,0-.47.32-.34.25.85.49.4.06-.23.08-.66.25-.43l-.06.38c.22,0,.12-.55.35-.29,0,.15-.17.13-.14.17.15.3.1-.22.22-.22l0,.34c.23-.05.49-.3.75-.36,0,.1-.06.21,0,.31.33-.17.69,0,1,.24l.12-.29s.05.13,0,.19c.12.11,0-.19.07-.3s.09.17,0,.26c.22-.25.61-.54.84-.22l0,.09c.18.12.2-.6.36-.33l0,.05c.38.13.81-.14,1.1.3.06-.42.38.19.41-.4.22.29.16.4.47.59.08,0,.12-.37.23-.43v.31l.14-.32.07.37L12,2.8A.3.3,0,0,1,12,2.57c.15-.14.36.21.37.37l.35-.26a.46.46,0,0,1-.11.25c.19-.31,0,.32.21,0a.74.74,0,0,1,0-.25.29.29,0,0,0,.43.11l0,.21c.26.05.55-.1.85-.1-.11-.1-.08-.47,0-.5l0,.33c.06-.2-.09-.12,0-.37.11,0,.07.37,0,.48l.13-.11a2,2,0,0,1,0,.27c.05-.2.23.33.31,0v.1A5.34,5.34,0,0,0,15.21,3c0-.28.1-.22.17-.45.18.09.37.31.58.29s0-.24.11-.41c0,.26.22.23.11.42a1.26,1.26,0,0,0,.65-.26c0-.1-.07-.15-.05-.24s.13.11.12.23l0,0c.36-.38.83.75,1.12.21l0,0,.3-.28c.14,0-.08.19,0,.35.32-.43.51.06.77-.22.21.76.73-.05,1,.43l0-.18c.07-.17.09.1.14.14,0-.14-.08-.16,0-.26.61-.21,1.25.26,1.87.42.23,0,.13-.92.42-.5l-.08.33c.46-.4.94,0,1.39-.32,0,.08,0,.18-.07.17.09.24.35,0,.35-.18.07,0,0,.18.06.28s.24-.31.29-.07c0,0,0,.08,0,.1s.29,0,.23-.25c.17.13.32-.12.46,0,.09-.31.29.15.32-.29,0,.45.3.36.4.15,0,.14.09.14.05.33.12,0,.23-.09.21-.32.22.54.45-.44.58.26a4.1,4.1,0,0,1,1-.51c0,.45-.36,0-.35.52.31-.19.49-.57.79-.46.08.06,0,.2-.07.27.31-.19.6,0,.87-.2a.23.23,0,0,1-.06.12c.05,0,.13.07.12-.14l-.05.06c-.09-.3.21-.62.22-.78-.09.59.27.15.13.89a.39.39,0,0,0,.07-.27c.05,0,.07.12,0,.28.19-.11.12-.33.3-.33a1.66,1.66,0,0,1-.05.25c.09-.19.18-.39.33-.3,0,.06,0,.14,0,.14.25,0,.43-.52.71-.33-.08.43.1.14.11.52l.15-.11-.06-.18c.13,0,.25-.27.36-.14L31,2.4l.25-.07-.14-.14c.13-.19,0-.47.16-.37,0,0,.13,0,.2.22h0c.07-.12.13-.24.23-.15s0,.41,0,.49c.06-.31.31-.09.39-.42a1,1,0,0,0,0,.31L32.16,2c.06.08.07.12.06.28.18,0-.06-.47.16-.27,0,0,0,.06,0,.1.22.11.42-.16.62,0,.06.38-.18.09-.11.41.29-.07.6-.45.88-.36l-.05,0c0-.53.21.26.35,0a.59.59,0,0,0,0,.24c.19.09.39-.13.68-.3l0,.14c.11.12.3.07.42.13,0-.14.11-.11.06-.31.38.78.72-.42,1.05.23,0,0-.1.12-.06.12l.28-.13c0-.23,0-.14-.1-.32s.12-.24.19-.24c-.13.15,0,.37.06.5,0-.07,0-.15,0-.22.15.41,0-.46.23-.19v.12c.08-.06.15-.22.23-.19,0,.27-.08.12-.09.34.12,0,.23-.51.33-.24,0,.07-.12.08-.17.15.11.31.13.23.21.28h0l.19.14,0-.09c.14-.7.29-.13.49-.58-.19.43,0,.25,0,.55,0,.08.12.18.1.26.09-.24.15.19.28-.16,0,.1.1,0,.08.25.12-.08,0-.17,0-.29.18-.33.43.4.7-.05.23-.19.27-.52.48-.68a.43.43,0,0,1-.06.36c.12.14.2.12.31,0a.47.47,0,0,0,0,.27c.09,0,.06-.36.17-.21a2.47,2.47,0,0,1-.09.39c.1-.09.2-.27.31-.36,0,.17-.06.26-.1.37A.56.56,0,0,0,40.41,2l-.08-.1s0,.23,0,.28c-.1.21-.15-.09-.15-.19l.08-.06c-.08-.57-.3.09-.46.06l.06-.42-.16.35c0-.11-.06-.34,0-.4-.11-.21-.1.15-.19-.08a.08.08,0,0,1,0-.07l-.11.12c0-.09,0-.29,0-.23-.19-.24-.31.31-.38,0l0,0c-.27.14,0,.31-.23.66l-.13-.75,0,.31s-.08,0-.07-.16c-.1.21,0,.13,0,.33-.13-.28-.36.13-.39-.36,0,.23.13.18,0,.34,0-.52-.16.09-.28-.15,0-.27.15-.13,0-.37-.07.46-.23-.1-.34,0,0,.36-.22.15-.39.27,0-.12-.32-.2-.48-.33V.91c0,.37-.19.3-.31.37a.67.67,0,0,1,.09-.4h-.11a.3.3,0,0,1-.13.22l0-.27c-.15,0-.3.32-.49.14,0,.26.15.71-.05.88a.92.92,0,0,1,0-.43s-.06.11-.1.06l.08-.23c-.09-.1,0,.19-.12.17,0-.2-.05-.14,0-.3s.06.08.09,0a.44.44,0,0,1-.21-.3c0,.11,0,.27-.06.29S35.4.88,35.31.78c0,.14-.13,0-.13.29,0,0-.05-.14-.07-.22-.08.13-.36,0-.27.35l0,0h0c-.25.29-.53-.17-.78,0v-.1c-.15.11-.33.07-.44.28,0,0-.1-.18-.09-.3-.11.07-.13.19-.29,0,.12-.17,0-.15.12-.13C33.22.89,33.18.73,33,1c.05-.25-.11-.32-.18-.24l.1.18a.29.29,0,0,1-.22,0l0-.33c-.3-.4-.55.69-.78,0-.08.23.17.16.09.44-.14,0-.29-.52-.33-.52-.19-.18-.18.49-.38.36,0,.12,0,.44-.1.55-.14,0-.17-.5-.08-.59s0,0,0,.07a.17.17,0,0,0,0-.22l0,.12C31.19.68,31,.69,31,.49c-.11.11,0,.19,0,.26-.18-.17-.28,0-.47-.12,0,.07.06.2,0,.2-.27-.15-.12.23-.3.28-.1-.18,0-.43-.15-.28-.11-.12,0-.31,0-.41C30,.65,29.89.27,29.8.23l.09-.1a.16.16,0,0,1-.14.05l.05.24c-.05,0-.1,0-.1-.14-.05.16,0,.39-.07.61C29.56.77,29.42,1,29.4.7c.22.11,0-.32.16-.37,0,0-.08,0-.13,0a.1.1,0,0,1,0-.08c-.21-.28-.1.36-.31.35,0-.18-.05-.34-.09-.3s0,.3,0,.43c-.14-.14-.15.1-.22.09l.08.06c0,.18-.1.15-.19.21,0-.14.09-.1.05-.16-.11.31-.24-.32-.39-.11-.07-.12,0-.33-.07-.42-.17.23-.18-.24-.36-.05.05.24.06.18-.06.41L28.13.6l-.19.35c.09,0,.19-.15.24-.11-.09.19-.08.14,0,.33-.12-.36-.24.21-.38,0V.55c-.21-.26-.37.3-.64.15l.09.1c0,.23-.17,0-.26.13a.89.89,0,0,0-.08-.39c0,.15-.2,0-.22.38L26.54.66c-.22-.11-.25.56-.46.5.06-.21,0-.35.11-.51-.07,0-.13,0-.13.1,0-.12-.19.27-.26.08,0,.09,0,.29-.12.28a.33.33,0,0,1,0-.1c0,.1-.12.13-.05.35-.22-.62-.6,0-.79-.48a1.82,1.82,0,0,1-.48.14c0-.06,0-.1,0-.08-.19-.18-.12.57-.34.36s.12-.17,0-.29c0-.65-.26.09-.41-.29l0,0c-.11-.22-.27.25-.46.2a.35.35,0,0,0,0-.1,1,1,0,0,1-.54.53c.05-.25.08-.13,0-.39-.08,0,0,.41-.13.49a1.35,1.35,0,0,1-.18-.54h.15c-.08-.36-.19,0-.27,0V.65c-.23.05-.23.44-.48.42l0,.12c-.13.39-.11-.22-.25.07l0-.39a2.23,2.23,0,0,1-.47.46A2.09,2.09,0,0,1,21.52.7a.33.33,0,0,0-.34.22s.08-.13.11-.07c-.11.31-.25.46-.42.46,0-.77-.46-.19-.58-.79-.31.28-.61-.12-1-.08.13.6-.11,0-.08.63-.08,0-.12,0-.12,0L18.85.69c-.06-.18.08-.13.07-.27-.18,0-.08-.26-.2-.42,0,.22-.06.31-.17.23l.15.28c-.26.33-.22-.51-.48-.19L18.3.13c-.13.11-.49,0-.62.49,0-.07-.05-.24,0-.28-.32-.07-.71.52-1,.22l0-.15c-.06,0-.1.28-.18.13s0-.15,0-.16-.16.26-.24.17L16.4.38c-.31-.2-.48.41-.73.51A.67.67,0,0,0,15.3.24V.18c-.36-.05-.61.36-.95.54-.21-.48-.7-.2-1-.47a.47.47,0,0,1-.07.39c-.08-.09-.22.31-.2-.1h0c-.06-.4-.22-.29-.35-.3l0,.53c-.33-.77-.86.28-1-.41-.08.13-.18.13-.26.26V.35a.87.87,0,0,0-.6,0l.06-.2c-.15,0-.19.82-.33.83l0-.42c-.27,0-.54-.36-.8,0,0-.06,0-.18.06-.2-.13,0-.49-.29-.44.29,0-.38-.28,0-.42.13l0-.28C8.8.83,8.8.93,8.63,1s0-.22,0-.15c-.13-.15-.1.26-.27.12L8.44.81c-.14,0-.13.07-.2.28S8,1,8,.77c0,.15-.09.36-.18.29a.3.3,0,0,1,0-.18c-.23-.19-.34.32-.5.05a.44.44,0,0,0,0-.17c.18,0,.33,0,.32,0,0-.26-.15-.3,0-.66-.12.19-.32.61-.47.49a.57.57,0,0,1,0-.09v0S7,.52,7,.56,6.93.49,6.89.49c0-.21-.17-.11-.24-.12,0,.28-.09.24,0,.47,0,0,0,0,.06,0l0,0v0l.18,0C6.86.9,6.8,1,6.72.87c0,.18-.08.37-.1.45-.1-.39-.3-.6-.32-.85-.23.16-.53.1-.67.63-.06.07-.07-.15-.1-.23s.08,0,.1-.12c-.13.14-.38.05-.41.42C5,1,5.3.83,5.08.89l0-.11C4.67.19,4.4,1.72,3.92,1A.22.22,0,0,1,4,1.1C3.42.76,2.84,1.41,2.29.88,2.14.77,2.12,1,2,1.19l0-.3-.16.35c-.23.26-.4-.74-.69-.26l0,.2c-.1,0-.33.12-.31-.11,0,0,0,.21-.07.11V1l-.26.27C.34,1.17.56.66.28.63A.88.88,0,0,0,0,1.19s.11.1.11.26L0,1.53A2,2,0,0,0,.17,2.8l.17-.28.05.23H.25c.08.21.13,0,.19-.1a.55.55,0,0,0,.07.25l.17-.44c0,.18-.07.36,0,.46.08-.21-.07-.41.05-.54.08.21.06.38.15.2a.35.35,0,0,1,0,.25c.08-.14.22-.06.27-.31.08.26.28-.07.28.37,0-.11.15-.35.23-.36-.14.53.29,0,.25.6.1-.47.38-.21.56-.47,0,0,0,.11,0,.09s.13.18.2.27c0-.39.18-.48.26-.72.13.38-.08.46,0,.82,0-.32.22-.32.18-.58A1,1,0,0,1,3.15,3c0-.49.09-.08.17-.38.14.24,0,.46.19.31A.35.35,0,0,1,3.45,3.21Zm3.69-.85h0l-.08,0Zm.31,0H7.32c0-.1,0-.2,0-.19S7.41,2.28,7.45,2.36ZM6.8.41s.07,0,.07.07l-.09,0v0A1,1,0,0,1,6.8.41Z"/><path class="cls-1" d="M6.71.78l0,0,0,.06,0-.09Z"/><path class="cls-1" d="M34.84,1.2h0v0Z"/><polygon class="cls-1" points="11.74 2.9 11.74 2.83 11.71 2.89 11.74 2.9"/><path class="cls-1" d="M36.54,2.16a.19.19,0,0,0,0,.07A.25.25,0,0,0,36.54,2.16Z"/><path class="cls-1" d="M37.28,2.23l.1.1A.41.41,0,0,0,37.28,2.23Z"/><path class="cls-1" d="M37.85,2.37s0-.09,0-.12h0Z"/><path class="cls-1" d="M28.83,2.7h0C28.75,2.76,28.79,2.74,28.83,2.7Z"/><path class="cls-1" d="M31.51,2a.72.72,0,0,1-.09.13S31.51,2.2,31.51,2Z"/><path class="cls-1" d="M25.83,3h0Z"/><path class="cls-1" d="M31.3,2.17c0,.06.09,0,.12,0S31.34,2.13,31.3,2.17Z"/><path class="cls-1" d="M40.31,2.49h0a.22.22,0,0,1,0,0Z"/><path class="cls-1" d="M40.34,2.46l0,0S40.34,2.43,40.34,2.46Z"/><path class="cls-1" d="M40.43,2.36l-.06.07S40.42,2.44,40.43,2.36Z"/><path class="cls-1" d="M39.56,2.36v.1A.56.56,0,0,0,39.56,2.36Z"/><path class="cls-1" d="M39.33,2.39c.05,0,.14.22.21.15V2.47C39.51,2.62,39.38,2.22,39.33,2.39Z"/><path class="cls-1" d="M38.38,1.13l.19.08c0-.11-.08-.25,0-.28C38.34.61,38.63,1.18,38.38,1.13Z"/><path class="cls-1" d="M37.78,1c.1-.05,0-.16,0-.22C37.72.86,37.71.88,37.78,1Z"/><path class="cls-1" d="M33.5,1V.72C33.43.76,33.51.82,33.5,1Z"/><polygon class="cls-1" points="32.68 2.3 32.75 2.46 32.79 2.22 32.68 2.3"/><polygon class="cls-1" points="32.19 0.48 32.23 0.44 32.09 0.53 32.19 0.48"/><path class="cls-1" d="M25,.57l0,.31C25.07.82,25.08.47,25,.57Z"/><path class="cls-1" d="M21.88.89c0-.16-.12-.26-.18-.1S21.85.93,21.88.89Z"/><polygon class="cls-1" points="12.56 0.37 12.62 0.27 12.51 0.36 12.56 0.37"/><path class="cls-1" d="M42,15.28C42,15.2,42,15,42,15l0,.33Z"/><path class="cls-1" d="M41.61,14.67a1.42,1.42,0,0,0-.11.75c.07-.32.09-.19.16-.56.06,0,.1.11.09.23,0-.08.09.07.12-.13s-.18-.27-.28-.05A.6.6,0,0,1,41.61,14.67Z"/><path class="cls-1" d="M35.79,14.15l0,0A.07.07,0,0,0,35.79,14.15Z"/><path class="cls-1" d="M32.19,14s0,0,0-.07S32.18,13.94,32.19,14Z"/><path class="cls-1" d="M31.57,13.61l0,0S31.58,13.58,31.57,13.61Z"/><path class="cls-1" d="M35.79,14.15l-.1-.1C35.69,14.16,35.74,14.13,35.79,14.15Z"/><path class="cls-1" d="M40.8,15.47a.21.21,0,0,0,.05-.09l0,0Z"/><path class="cls-1" d="M37.38,13.89h0s0-.08,0-.13Z"/><path class="cls-1" d="M38.6,13.83s0,.27,0,.39a.34.34,0,0,1,.06-.19A1.66,1.66,0,0,0,38.6,13.83Z"/><path class="cls-1" d="M40.53,14.33l0,0Z"/><path class="cls-1" d="M36.51,13.82a.69.69,0,0,0,0-.1A.48.48,0,0,0,36.51,13.82Z"/><path class="cls-1" d="M2.42,15.94s0,0,0,0S2.41,15.94,2.42,15.94Z"/><path class="cls-1" d="M1,14.55l0,0c0-.05,0-.11,0-.16Z"/><path class="cls-1" d="M30.45,13.25h0S30.47,13.23,30.45,13.25Z"/><path class="cls-1" d="M20.11,13.45c.12.25-.19.32,0,.6C20.08,13.95,20.26,13.62,20.11,13.45Z"/><path class="cls-1" d="M40.77,15.43h0S40.76,15.44,40.77,15.43Z"/><path class="cls-1" d="M20.1,14.06h0l0,0Z"/><path class="cls-1" d="M27.85,13.42a.64.64,0,0,0,0,.12A.43.43,0,0,0,27.85,13.42Z"/><path class="cls-1" d="M29.79,13.82l0,0A.09.09,0,0,0,29.79,13.82Z"/><path class="cls-1" d="M26.85,13.81s0-.06-.07,0v0S26.82,13.77,26.85,13.81Z"/><path class="cls-1" d="M25.81,13.81l0,.06,0,0Z"/><path class="cls-1" d="M5.59,15.8a1.71,1.71,0,0,1,0-.25C5.56,15.75,5.41,15.82,5.59,15.8Z"/><path class="cls-1" d="M40.8,15.31c0,.07,0,.11,0,.12l0,0A.34.34,0,0,0,40.8,15.31Z"/><path class="cls-1" d="M26.81,16l-.17,0A.33.33,0,0,0,26.81,16Z"/><path class="cls-1" d="M13.08,15.76l0,0S13.07,15.79,13.08,15.76Z"/><path class="cls-1" d="M26.15,16a.52.52,0,0,0-.09-.19.38.38,0,0,0,0,.07Z"/><path class="cls-1" d="M5.54,15.55h0Z"/><path class="cls-1" d="M4.45,16.21c.16,0,.07-.36.11-.57.19-.1.09.27.15.46.12-.1.21-.44.3-.42a.32.32,0,0,1,0,.16c.12-.29.37,0,.51-.38a.42.42,0,0,1,0,.09,3.28,3.28,0,0,1,0-.51c.07,0,.13-.23.16,0,0,0,0,.09-.07.17l.07-.1c.07.35-.1.12-.1.38.14-.11.31-.4.42-.3,0,.34-.26.11-.11.42l-.17-.13c.13.54-.1,0,0,.54.23.1.25-.17.48-.07.05-.19,0-.28,0-.47.32-.34.25.85.49.4.06-.23.08-.66.25-.43l-.06.38c.22,0,.12-.55.35-.29,0,.15-.17.13-.14.17.15.3.1-.22.22-.22l0,.34c.23-.05.49-.3.75-.36,0,.1-.06.21,0,.31.33-.17.69,0,1,.24l.12-.29s.05.13,0,.19c.12.11,0-.19.07-.3s.09.17,0,.26c.22-.25.61-.54.84-.22l0,.09c.18.12.2-.6.36-.33l0,.05c.38.13.81-.14,1.1.3.06-.42.38.19.41-.4.22.29.16.4.47.59.08,0,.12-.37.23-.43v.31l.14-.32.07.37.1-.08a.3.3,0,0,1-.08-.23c.15-.14.36.21.37.37l.35-.26a.46.46,0,0,1-.11.25c.19-.31,0,.32.21,0a.74.74,0,0,1,0-.25.29.29,0,0,0,.43.11l0,.21c.26.05.55-.1.85-.1-.11-.1-.08-.47,0-.5l0,.33c.06-.2-.09-.12,0-.37.11,0,.07.37,0,.48l.13-.11a2,2,0,0,1,0,.27c.05-.2.23.33.31,0v.1a5.34,5.34,0,0,0,.67-.13c0-.28.1-.22.17-.45.18.09.37.31.58.29s0-.24.11-.41c0,.26.22.23.11.42a1.26,1.26,0,0,0,.65-.26c0-.1-.07-.15-.05-.24s.13.11.12.23l0,0c.36-.38.83.75,1.12.21l0,0,.3-.28c.14,0-.08.19,0,.35.32-.43.51.06.77-.22.21.76.73-.05,1,.43l0-.18c.07-.17.09.1.14.14,0-.14-.08-.16,0-.26.61-.21,1.25.26,1.87.42.23,0,.13-.92.42-.5l-.08.33c.46-.4.94,0,1.39-.32,0,.08,0,.18-.07.17.09.24.35,0,.35-.18.07,0,0,.18.06.28s.24-.31.29-.07c0,0,0,.08,0,.1s.29,0,.23-.25c.17.13.32-.12.46,0,.09-.31.29.15.32-.29,0,.45.3.36.4.15,0,.14.09.14.05.33.12,0,.23-.09.21-.32.22.54.45-.44.58.26a4.1,4.1,0,0,1,1-.51c0,.45-.36,0-.35.52.31-.19.49-.57.79-.46.08.06,0,.2-.07.27.31-.19.6,0,.87-.2a.23.23,0,0,1-.06.12c.05,0,.13.07.12-.14l-.05.06c-.09-.3.21-.62.22-.78-.09.59.27.15.13.89a.39.39,0,0,0,.07-.27c.05,0,.07.12,0,.28.19-.11.12-.33.3-.32a1.66,1.66,0,0,1-.05.25c.09-.19.18-.39.33-.3,0,.06,0,.14,0,.14.25,0,.43-.52.71-.33-.08.43.1.14.11.52l.15-.11-.06-.18c.13,0,.25-.27.36-.14l-.1.15.25-.07-.14-.14c.13-.19,0-.47.16-.37,0,0,.13,0,.2.22h0c.07-.12.13-.24.23-.15s0,.41,0,.49c.06-.31.31-.09.39-.42a1,1,0,0,0,0,.31l.05-.25c.06.08.07.12.06.28.18,0-.06-.47.16-.27,0,0,0,.06,0,.1.22.11.42-.16.62,0,.06.38-.18.09-.11.41.29-.07.6-.45.88-.36l-.05,0c0-.53.21.26.35,0a.59.59,0,0,0,0,.24c.19.09.39-.13.68-.3l0,.14c.11.12.3.07.42.13,0-.14.11-.11.06-.31.38.78.72-.42,1.05.23,0,0-.1.12-.06.12l.28-.13c0-.23,0-.14-.1-.32s.12-.24.19-.24c-.13.15,0,.37.06.5,0-.07,0-.15,0-.22.15.41,0-.46.23-.19v.12c.08-.06.15-.22.23-.19,0,.27-.08.12-.09.34.12,0,.23-.51.33-.24,0,.07-.12.08-.17.15.11.31.13.23.21.28h0l.19.14,0-.09c.14-.7.29-.13.49-.58-.19.43,0,.25,0,.55,0,.08.12.18.1.26.09-.24.15.19.28-.16,0,.1.1,0,.08.25.12-.08,0-.17,0-.29.18-.33.43.4.7-.05.23-.19.27-.52.48-.68a.43.43,0,0,1-.06.36c.12.14.2.12.31,0a.47.47,0,0,0,0,.27c.09,0,.06-.36.17-.21a2.47,2.47,0,0,1-.09.39c.1-.09.2-.27.31-.36,0,.17-.06.26-.1.37a.56.56,0,0,0,.35-.42l-.08-.1s0,.23,0,.28c-.1.21-.15-.09-.15-.19l.08-.06c-.08-.57-.3.09-.46.06l.06-.42-.16.35c0-.11-.06-.34,0-.4-.11-.21-.1.15-.19-.08a.08.08,0,0,1,0-.07l-.11.12c0-.09,0-.29,0-.23-.19-.24-.31.31-.38,0l0,0c-.27.14,0,.31-.23.66l-.13-.75,0,.31s-.08,0-.07-.16c-.1.21,0,.13,0,.33-.13-.28-.36.13-.39-.36,0,.23.13.18,0,.34,0-.52-.16.09-.28-.15,0-.27.15-.13,0-.37-.07.46-.23-.1-.34,0,0,.36-.22.15-.39.27,0-.12-.32-.2-.48-.33v-.06c0,.37-.19.3-.31.37a.67.67,0,0,1,.09-.4h-.11a.3.3,0,0,1-.13.22l0-.27c-.15,0-.3.32-.49.14,0,.26.15.71-.05.88a.92.92,0,0,1,0-.43s-.06.11-.1.06l.08-.23c-.09-.1,0,.19-.12.17,0-.2-.05-.14,0-.3s.06.08.09,0a.44.44,0,0,1-.21-.3c0,.11,0,.27-.06.29s-.05-.24-.14-.34c0,.14-.13,0-.13.29,0,0-.05-.14-.07-.22-.08.13-.36,0-.27.35l0,0h0c-.25.29-.53-.17-.78,0v-.1c-.15.11-.33.07-.44.28,0,0-.1-.18-.09-.3-.11.07-.13.19-.29,0,.12-.17,0-.15.12-.13-.15-.09-.18-.24-.34,0,.05-.25-.11-.32-.18-.24l.1.18a.29.29,0,0,1-.22,0l0-.33c-.3-.4-.55.69-.78,0-.08.23.17.16.09.44-.14,0-.29-.52-.33-.52-.19-.18-.18.49-.38.36,0,.12,0,.44-.1.55-.14,0-.17-.5-.08-.59s0,0,0,.07a.17.17,0,0,0,0-.22l0,.12c-.07-.12-.26-.11-.22-.3-.11.11,0,.19,0,.26-.18-.17-.28,0-.47-.12,0,.07.06.2,0,.2-.27-.15-.12.23-.3.28-.1-.18,0-.43-.15-.28-.11-.12,0-.31,0-.41-.17.23-.32-.15-.41-.19l.09-.1a.16.16,0,0,1-.14.05l.05.24c-.05,0-.1,0-.1-.14-.05.16,0,.39-.07.61-.07-.12-.21.13-.24-.19.22.11,0-.32.16-.37,0,0-.08,0-.13,0a.1.1,0,0,1,0-.08c-.21-.28-.1.36-.31.35,0-.18-.05-.34-.09-.3s0,.3,0,.43c-.14-.14-.15.1-.22.09l.08.06c0,.18-.1.15-.19.21,0-.14.09-.1.05-.16-.11.31-.24-.32-.39-.11-.07-.12,0-.33-.07-.41-.17.23-.18-.24-.36-.05.05.24.06.18-.06.41l.29-.17-.19.35c.09,0,.19-.15.24-.11-.09.19-.08.14,0,.33-.12-.36-.24.21-.38,0v-.59c-.21-.26-.37.3-.64.15l.09.1c0,.23-.17,0-.26.13a.89.89,0,0,0-.08-.39c0,.15-.2,0-.22.38l-.12-.26c-.22-.11-.25.56-.46.5.06-.21,0-.35.11-.51-.07,0-.13,0-.13.1,0-.12-.19.27-.26.08,0,.09,0,.29-.12.28a.33.33,0,0,1,0-.1c0,.1-.12.13-.05.35-.22-.62-.6,0-.79-.48a1.82,1.82,0,0,1-.48.14c0-.06,0-.1,0-.08-.19-.18-.12.57-.34.36s.12-.17,0-.29c0-.65-.26.09-.41-.29l0,0c-.11-.22-.27.25-.46.2a.35.35,0,0,0,0-.1,1,1,0,0,1-.54.53c.05-.25.08-.13,0-.39-.08,0,0,.41-.13.49a1.35,1.35,0,0,1-.18-.54h.15c-.08-.36-.19,0-.27,0v-.16c-.23.05-.23.44-.48.42l0,.12c-.13.39-.11-.22-.25.07l0-.39a2.23,2.23,0,0,1-.47.46,2.09,2.09,0,0,1,.39-.62.33.33,0,0,0-.34.22s.08-.13.11-.07c-.11.31-.25.46-.42.46,0-.77-.46-.19-.58-.79-.31.28-.61-.12-1-.08.13.6-.11,0-.08.63-.08,0-.12,0-.12,0l-.25-.37c-.06-.18.08-.13.07-.27-.18,0-.08-.26-.2-.42,0,.22-.06.31-.17.23l.15.28c-.26.33-.22-.51-.48-.19l.08-.19c-.13.11-.49,0-.62.49,0-.07-.05-.24,0-.28-.32-.07-.71.52-1,.22l0-.15c-.06,0-.1.28-.18.13s0-.15,0-.16-.16.26-.24.17l.07-.17c-.31-.2-.48.41-.73.51a.67.67,0,0,0-.36-.65v-.06c-.36-.05-.61.36-.95.54-.21-.48-.7-.2-1-.47a.47.47,0,0,1-.07.39c-.08-.09-.22.31-.2-.1h0c-.06-.4-.22-.29-.35-.3l0,.53c-.33-.77-.86.28-1-.41-.08.13-.18.13-.26.26v-.28a.87.87,0,0,0-.6,0l.06-.2c-.15,0-.19.82-.33.83l0-.42c-.27,0-.54-.36-.8,0,0-.06,0-.18.06-.2-.13,0-.49-.29-.44.29,0-.38-.28,0-.42.13l0-.28c-.12.36-.13.45-.3.55s0-.22,0-.15c-.13-.15-.1.26-.27.12l.06-.18c-.14,0-.13.07-.2.28S9,14,9,13.77c0,.15-.09.36-.18.29a.3.3,0,0,1,0-.18c-.23-.19-.34.32-.5.05a.44.44,0,0,0,0-.17c.18,0,.33,0,.32,0,0-.26-.15-.3,0-.66-.12.19-.32.61-.47.49a.57.57,0,0,1,0-.09v0s-.06,0-.09,0-.08-.07-.12-.08c0-.21-.17-.11-.24-.12,0,.28-.09.24,0,.47,0,0,0,0,.06,0l0,0v0l.18,0c-.06.14-.12.26-.2.11,0,.18-.08.37-.1.45-.1-.39-.3-.6-.32-.85-.23.16-.53.1-.67.63-.06.07-.07-.15-.1-.23s.08,0,.1-.12c-.13.14-.38.05-.41.42-.16-.17.09-.34-.13-.28l0-.11c-.44-.59-.71.94-1.19.18A.22.22,0,0,1,5,14.1c-.55-.33-1.14.31-1.68-.22-.15-.11-.17.13-.27.31l0-.3-.16.35c-.23.26-.4-.74-.69-.26l0,.2c-.1,0-.33.12-.31-.11,0,0,0,.21-.07.11V14l-.26.27c-.2-.11,0-.63-.26-.66a.88.88,0,0,0-.27.57s.11.1.11.26l-.1.08a2,2,0,0,0,.15,1.27l.17-.28.05.23H1.25c.08.21.13,0,.19-.1a.55.55,0,0,0,.07.25l.17-.44c0,.18-.07.36,0,.46.08-.21-.07-.41.05-.54.08.21.06.38.15.2a.35.35,0,0,1,0,.25c.08-.14.22-.06.27-.31.08.26.28-.07.28.37,0-.11.15-.35.23-.36-.14.53.29,0,.25.6.1-.47.38-.21.56-.47,0,0,0,.11,0,.09s.13.18.2.27c0-.39.18-.48.26-.72.13.38-.08.46,0,.82,0-.32.22-.32.18-.58a1,1,0,0,1,.13.44c0-.49.09-.08.17-.38.14.24,0,.46.19.31A.35.35,0,0,1,4.45,16.21Zm3.69-.85h0l-.08,0Zm.31,0H8.32c0-.1,0-.2,0-.19S8.41,15.28,8.45,15.36ZM7.8,13.41s.07,0,.07.07l-.09,0v0A1,1,0,0,1,7.8,13.41Z"/><path class="cls-1" d="M7.71,13.78l0,0,0,.06,0-.09Z"/><path class="cls-1" d="M35.84,14.2h0v0Z"/><polygon class="cls-1" points="12.74 15.9 12.74 15.83 12.71 15.89 12.74 15.9"/><path class="cls-1" d="M37.54,15.16a.19.19,0,0,0,0,.07A.25.25,0,0,0,37.54,15.16Z"/><path class="cls-1" d="M38.28,15.23l.1.1A.41.41,0,0,0,38.28,15.23Z"/><path class="cls-1" d="M38.85,15.37s0-.09,0-.12h0Z"/><path class="cls-1" d="M29.83,15.7h0C29.75,15.76,29.79,15.74,29.83,15.7Z"/><path class="cls-1" d="M32.51,15a.72.72,0,0,1-.09.13S32.51,15.2,32.51,15Z"/><path class="cls-1" d="M26.83,16h0Z"/><path class="cls-1" d="M32.3,15.17c0,.06.09,0,.12,0S32.34,15.13,32.3,15.17Z"/><path class="cls-1" d="M41.31,15.49h0a.22.22,0,0,1,0,0Z"/><path class="cls-1" d="M41.34,15.46l0,0S41.34,15.43,41.34,15.46Z"/><path class="cls-1" d="M41.43,15.36l-.06.07S41.42,15.44,41.43,15.36Z"/><path class="cls-1" d="M40.56,15.36v.1A.56.56,0,0,0,40.56,15.36Z"/><path class="cls-1" d="M40.33,15.39c.05,0,.14.22.21.15v-.08C40.51,15.62,40.38,15.22,40.33,15.39Z"/><path class="cls-1" d="M39.38,14.13l.19.08c0-.11-.08-.25,0-.28C39.34,13.61,39.63,14.18,39.38,14.13Z"/><path class="cls-1" d="M38.78,14c.1-.05,0-.16,0-.22C38.72,13.86,38.71,13.88,38.78,14Z"/><path class="cls-1" d="M34.5,14v-.26C34.43,13.76,34.51,13.82,34.5,14Z"/><polygon class="cls-1" points="33.68 15.3 33.75 15.46 33.79 15.22 33.68 15.3"/><polygon class="cls-1" points="33.19 13.48 33.23 13.44 33.09 13.53 33.19 13.48"/><path class="cls-1" d="M26,13.57l0,.31C26.07,13.82,26.08,13.47,26,13.57Z"/><path class="cls-1" d="M22.88,13.89c0-.16-.12-.26-.18-.1S22.85,13.93,22.88,13.89Z"/><polygon class="cls-1" points="13.56 13.37 13.62 13.27 13.51 13.36 13.56 13.37"/><path class="cls-1" d="M42,28.28C42,28.2,42,28,42,28l0,.33Z"/><path class="cls-1" d="M41.61,27.67a1.42,1.42,0,0,0-.11.75c.07-.32.09-.19.16-.56.06,0,.1.11.09.23,0-.08.09.07.12-.13s-.18-.27-.28-.05A.6.6,0,0,1,41.61,27.67Z"/><path class="cls-1" d="M35.79,27.15l0,0A.07.07,0,0,0,35.79,27.15Z"/><path class="cls-1" d="M32.19,27s0,0,0-.07S32.18,26.94,32.19,27Z"/><path class="cls-1" d="M31.57,26.61l0,0S31.58,26.58,31.57,26.61Z"/><path class="cls-1" d="M35.79,27.15l-.1-.1C35.69,27.16,35.74,27.13,35.79,27.15Z"/><path class="cls-1" d="M40.8,28.47a.21.21,0,0,0,.05-.09l0,0Z"/><path class="cls-1" d="M37.38,26.89h0s0-.08,0-.13Z"/><path class="cls-1" d="M38.6,26.83s0,.27,0,.39a.34.34,0,0,1,.06-.19A1.66,1.66,0,0,0,38.6,26.83Z"/><path class="cls-1" d="M40.53,27.33l0,0Z"/><path class="cls-1" d="M36.51,26.82a.69.69,0,0,0,0-.1A.48.48,0,0,0,36.51,26.82Z"/><path class="cls-1" d="M2.42,28.94s0,0,0,0S2.41,28.94,2.42,28.94Z"/><path class="cls-1" d="M1,27.55l0,0c0-.05,0-.11,0-.16Z"/><path class="cls-1" d="M30.45,26.25h0S30.47,26.23,30.45,26.25Z"/><path class="cls-1" d="M20.11,26.45c.12.25-.19.32,0,.6C20.08,26.95,20.26,26.62,20.11,26.45Z"/><path class="cls-1" d="M40.77,28.43h0S40.76,28.44,40.77,28.43Z"/><path class="cls-1" d="M20.1,27.06h0l0,0Z"/><path class="cls-1" d="M27.85,26.42a.64.64,0,0,0,0,.12A.43.43,0,0,0,27.85,26.42Z"/><path class="cls-1" d="M29.79,26.82l0,0A.09.09,0,0,0,29.79,26.82Z"/><path class="cls-1" d="M26.85,26.81s0-.06-.07,0v0S26.82,26.77,26.85,26.81Z"/><path class="cls-1" d="M25.81,26.81l0,.06,0,0Z"/><path class="cls-1" d="M5.59,28.8a1.71,1.71,0,0,1,0-.25C5.56,28.75,5.41,28.82,5.59,28.8Z"/><path class="cls-1" d="M40.8,28.31c0,.07,0,.11,0,.12l0,0A.34.34,0,0,0,40.8,28.31Z"/><path class="cls-1" d="M26.81,29l-.17,0A.33.33,0,0,0,26.81,29Z"/><path class="cls-1" d="M13.08,28.76l0,0S13.07,28.79,13.08,28.76Z"/><path class="cls-1" d="M26.15,29a.52.52,0,0,0-.09-.19.38.38,0,0,0,0,.07Z"/><path class="cls-1" d="M5.54,28.55h0Z"/><path class="cls-1" d="M4.45,29.21c.16,0,.07-.36.11-.57.19-.1.09.27.15.46.12-.1.21-.44.3-.42a.32.32,0,0,1,0,.16c.12-.29.37,0,.51-.38a.42.42,0,0,1,0,.09,3.28,3.28,0,0,1,0-.51c.07,0,.13-.23.16,0,0,0,0,.09-.07.17l.07-.1c.07.35-.1.12-.1.38.14-.11.31-.4.42-.3,0,.34-.26.11-.11.42l-.17-.13c.13.54-.1,0,0,.54.23.1.25-.17.48-.07.05-.19,0-.28,0-.47.32-.34.25.85.49.4.06-.23.08-.66.25-.43l-.06.38c.22,0,.12-.55.35-.29,0,.15-.17.13-.14.17.15.3.1-.22.22-.22l0,.34c.23-.05.49-.3.75-.36,0,.1-.06.21,0,.31.33-.17.69,0,1,.24l.12-.29s.05.13,0,.19c.12.11,0-.19.07-.3s.09.17,0,.26c.22-.25.61-.54.84-.22l0,.09c.18.12.2-.6.36-.33l0,.05c.38.13.81-.14,1.1.3.06-.42.38.19.41-.4.22.29.16.4.47.59.08,0,.12-.37.23-.43v.31l.14-.32.07.37.1-.08a.3.3,0,0,1-.08-.23c.15-.14.36.21.37.37l.35-.26a.46.46,0,0,1-.11.25c.19-.31,0,.32.21,0a.74.74,0,0,1,0-.25.29.29,0,0,0,.43.11l0,.21c.26.05.55-.1.85-.1-.11-.1-.08-.47,0-.5l0,.33c.06-.2-.09-.12,0-.37.11,0,.07.37,0,.48l.13-.11a2,2,0,0,1,0,.27c.05-.2.23.33.31,0v.1a5.34,5.34,0,0,0,.67-.13c0-.28.1-.22.17-.45.18.09.37.31.58.29s0-.24.11-.41c0,.26.22.23.11.42a1.26,1.26,0,0,0,.65-.26c0-.1-.07-.15-.05-.24s.13.11.12.23l0,0c.36-.38.83.75,1.12.21l0,0,.3-.28c.14,0-.08.19,0,.35.32-.43.51.06.77-.22.21.76.73-.05,1,.43l0-.18c.07-.17.09.1.14.14,0-.14-.08-.16,0-.26.61-.21,1.25.26,1.87.42.23,0,.13-.92.42-.5l-.08.33c.46-.4.94,0,1.39-.32,0,.08,0,.18-.07.17.09.24.35,0,.35-.18.07,0,0,.18.06.28s.24-.31.29-.07c0,0,0,.08,0,.1s.29,0,.23-.25c.17.13.32-.12.46,0,.09-.31.29.15.32-.29,0,.45.3.36.4.15,0,.14.09.14.05.33.12,0,.23-.09.21-.32.22.54.45-.44.58.26a4.1,4.1,0,0,1,1-.51c0,.45-.36,0-.35.52.31-.19.49-.57.79-.46.08.06,0,.2-.07.27.31-.19.6,0,.87-.2a.23.23,0,0,1-.06.12c.05,0,.13.07.12-.14l-.05.06c-.09-.3.21-.62.22-.78-.09.59.27.15.13.89a.39.39,0,0,0,.07-.27c.05,0,.07.12,0,.28.19-.11.12-.33.3-.32a1.66,1.66,0,0,1-.05.25c.09-.19.18-.39.33-.3,0,.06,0,.14,0,.14.25,0,.43-.52.71-.33-.08.43.1.14.11.52l.15-.11-.06-.18c.13,0,.25-.27.36-.14l-.1.15.25-.07-.14-.14c.13-.19,0-.47.16-.37,0,0,.13,0,.2.22h0c.07-.12.13-.24.23-.15s0,.41,0,.49c.06-.31.31-.09.39-.42a1,1,0,0,0,0,.31l.05-.25c.06.08.07.12.06.28.18,0-.06-.47.16-.27,0,0,0,.06,0,.1.22.11.42-.16.62,0,.06.38-.18.09-.11.41.29-.07.6-.45.88-.36l-.05,0c0-.53.21.26.35,0a.59.59,0,0,0,0,.24c.19.09.39-.13.68-.3l0,.14c.11.12.3.07.42.13,0-.14.11-.11.06-.31.38.78.72-.42,1.05.23,0,0-.1.12-.06.12l.28-.13c0-.23,0-.14-.1-.32s.12-.24.19-.24c-.13.15,0,.37.06.5,0-.07,0-.15,0-.22.15.41,0-.46.23-.19v.12c.08-.06.15-.22.23-.19,0,.27-.08.12-.09.34.12,0,.23-.51.33-.24,0,.07-.12.08-.17.15.11.31.13.23.21.28h0l.19.14,0-.09c.14-.7.29-.13.49-.58-.19.43,0,.25,0,.55,0,.08.12.18.1.26.09-.24.15.19.28-.16,0,.1.1,0,.08.25.12-.08,0-.17,0-.29.18-.33.43.4.7-.05.23-.19.27-.52.48-.68a.43.43,0,0,1-.06.36c.12.14.2.12.31,0a.47.47,0,0,0,0,.27c.09,0,.06-.36.17-.21a2.47,2.47,0,0,1-.09.39c.1-.09.2-.27.31-.36,0,.17-.06.26-.1.37a.56.56,0,0,0,.35-.42l-.08-.1s0,.23,0,.28c-.1.21-.15-.09-.15-.19l.08-.06c-.08-.57-.3.09-.46.06l.06-.42-.16.35c0-.11-.06-.34,0-.4-.11-.21-.1.15-.19-.08a.08.08,0,0,1,0-.07l-.11.12c0-.09,0-.29,0-.23-.19-.24-.31.31-.38,0l0,0c-.27.14,0,.31-.23.66l-.13-.75,0,.31s-.08,0-.07-.16c-.1.21,0,.13,0,.33-.13-.28-.36.13-.39-.36,0,.23.13.18,0,.34,0-.52-.16.09-.28-.15,0-.27.15-.13,0-.37-.07.46-.23-.1-.34,0,0,.36-.22.15-.39.27,0-.12-.32-.2-.48-.33v-.06c0,.37-.19.3-.31.37a.67.67,0,0,1,.09-.4h-.11a.3.3,0,0,1-.13.22l0-.27c-.15,0-.3.32-.49.14,0,.26.15.71-.05.88a.92.92,0,0,1,0-.43s-.06.11-.1.06l.08-.23c-.09-.1,0,.19-.12.17,0-.2-.05-.14,0-.3s.06.08.09,0a.44.44,0,0,1-.21-.3c0,.11,0,.27-.06.29s-.05-.24-.14-.34c0,.14-.13,0-.13.29,0,0-.05-.14-.07-.22-.08.13-.36,0-.27.35l0,0h0c-.25.29-.53-.17-.78,0v-.1c-.15.11-.33.07-.44.28,0,0-.1-.18-.09-.3-.11.07-.13.19-.29,0,.12-.17,0-.15.12-.13-.15-.09-.18-.24-.34,0,.05-.25-.11-.32-.18-.24l.1.18a.29.29,0,0,1-.22,0l0-.33c-.3-.4-.55.69-.78,0-.08.23.17.16.09.44-.14,0-.29-.52-.33-.52-.19-.18-.18.49-.38.36,0,.12,0,.44-.1.55-.14,0-.17-.5-.08-.59s0,0,0,.07a.17.17,0,0,0,0-.22l0,.12c-.07-.12-.26-.11-.22-.3-.11.11,0,.19,0,.26-.18-.17-.28,0-.47-.12,0,.07.06.2,0,.2-.27-.15-.12.23-.3.28-.1-.18,0-.43-.15-.28-.11-.12,0-.31,0-.41-.17.23-.32-.15-.41-.19l.09-.1a.16.16,0,0,1-.14.05l.05.24c-.05,0-.1,0-.1-.14-.05.16,0,.39-.07.61-.07-.12-.21.13-.24-.19.22.11,0-.32.16-.37,0,0-.08,0-.13,0a.1.1,0,0,1,0-.08c-.21-.28-.1.36-.31.35,0-.18-.05-.34-.09-.3s0,.3,0,.43c-.14-.14-.15.1-.22.09l.08.06c0,.18-.1.15-.19.21,0-.14.09-.1.05-.16-.11.31-.24-.32-.39-.11-.07-.12,0-.33-.07-.41-.17.23-.18-.24-.36-.05.05.24.06.18-.06.41l.29-.17-.19.35c.09,0,.19-.15.24-.11-.09.19-.08.14,0,.33-.12-.36-.24.21-.38,0v-.59c-.21-.26-.37.3-.64.15l.09.1c0,.23-.17,0-.26.13a.89.89,0,0,0-.08-.39c0,.15-.2,0-.22.38l-.12-.26c-.22-.11-.25.56-.46.5.06-.21,0-.35.11-.51-.07,0-.13,0-.13.1,0-.12-.19.27-.26.08,0,.09,0,.29-.12.28a.33.33,0,0,1,0-.1c0,.1-.12.13-.05.35-.22-.62-.6,0-.79-.48a1.82,1.82,0,0,1-.48.14c0-.06,0-.1,0-.08-.19-.18-.12.57-.34.36s.12-.17,0-.29c0-.65-.26.09-.41-.29l0,0c-.11-.22-.27.25-.46.2a.35.35,0,0,0,0-.1,1,1,0,0,1-.54.53c.05-.25.08-.13,0-.39-.08,0,0,.41-.13.49a1.35,1.35,0,0,1-.18-.54h.15c-.08-.36-.19,0-.27,0v-.16c-.23.05-.23.44-.48.42l0,.12c-.13.39-.11-.22-.25.07l0-.39a2.23,2.23,0,0,1-.47.46,2.09,2.09,0,0,1,.39-.62.33.33,0,0,0-.34.22s.08-.13.11-.07c-.11.31-.25.46-.42.46,0-.77-.46-.19-.58-.79-.31.28-.61-.12-1-.08.13.6-.11,0-.08.63-.08,0-.12,0-.12,0l-.25-.37c-.06-.18.08-.13.07-.27-.18,0-.08-.26-.2-.42,0,.22-.06.31-.17.23l.15.28c-.26.33-.22-.51-.48-.19l.08-.19c-.13.11-.49,0-.62.49,0-.07-.05-.24,0-.28-.32-.07-.71.52-1,.22l0-.15c-.06,0-.1.28-.18.13s0-.15,0-.16-.16.26-.24.17l.07-.17c-.31-.2-.48.41-.73.51a.67.67,0,0,0-.36-.65v-.06c-.36-.05-.61.36-.95.54-.21-.48-.7-.2-1-.47a.47.47,0,0,1-.07.39c-.08-.09-.22.31-.2-.1h0c-.06-.4-.22-.29-.35-.3l0,.53c-.33-.77-.86.28-1-.41-.08.13-.18.13-.26.26v-.28a.87.87,0,0,0-.6,0l.06-.2c-.15,0-.19.82-.33.83l0-.42c-.27,0-.54-.36-.8,0,0-.06,0-.18.06-.2-.13,0-.49-.29-.44.29,0-.38-.28,0-.42.13l0-.28c-.12.36-.13.45-.3.55s0-.22,0-.15c-.13-.15-.1.26-.27.12l.06-.18c-.14,0-.13.07-.2.28S9,27,9,26.77c0,.15-.09.36-.18.29a.3.3,0,0,1,0-.18c-.23-.19-.34.32-.5.05a.44.44,0,0,0,0-.17c.18,0,.33,0,.32,0,0-.26-.15-.3,0-.66-.12.19-.32.61-.47.49a.57.57,0,0,1,0-.09v0s-.06,0-.09,0-.08-.07-.12-.08c0-.21-.17-.11-.24-.12,0,.28-.09.24,0,.47,0,0,0,0,.06,0l0,0v0l.18,0c-.06.14-.12.26-.2.11,0,.18-.08.37-.1.45-.1-.39-.3-.6-.32-.85-.23.16-.53.1-.67.63-.06.07-.07-.15-.1-.23s.08,0,.1-.12c-.13.14-.38.05-.41.42-.16-.17.09-.34-.13-.28l0-.11c-.44-.59-.71.94-1.19.18A.22.22,0,0,1,5,27.1c-.55-.33-1.14.31-1.68-.22-.15-.11-.17.13-.27.31l0-.3-.16.35c-.23.26-.4-.74-.69-.26l0,.2c-.1,0-.33.12-.31-.11,0,0,0,.21-.07.11V27l-.26.27c-.2-.11,0-.63-.26-.66a.88.88,0,0,0-.27.57s.11.1.11.26l-.1.08a2,2,0,0,0,.15,1.27l.17-.28.05.23H1.25c.08.21.13,0,.19-.1a.55.55,0,0,0,.07.25l.17-.44c0,.18-.07.36,0,.46.08-.21-.07-.41.05-.54.08.21.06.38.15.2a.35.35,0,0,1,0,.25c.08-.14.22-.06.27-.31.08.26.28-.07.28.37,0-.11.15-.35.23-.36-.14.53.29,0,.25.6.1-.47.38-.21.56-.47,0,0,0,.11,0,.09s.13.18.2.27c0-.39.18-.48.26-.72.13.38-.08.46,0,.82,0-.32.22-.32.18-.58a1,1,0,0,1,.13.44c0-.49.09-.08.17-.38.14.24,0,.46.19.31A.35.35,0,0,1,4.45,29.21Zm3.69-.85h0l-.08,0Zm.31,0H8.32c0-.1,0-.2,0-.19S8.41,28.28,8.45,28.36ZM7.8,26.41s.07,0,.07.07l-.09,0v0A1,1,0,0,1,7.8,26.41Z"/><path class="cls-1" d="M7.71,26.78l0,0,0,.06,0-.09Z"/><path class="cls-1" d="M35.84,27.2h0v0Z"/><polygon class="cls-1" points="12.74 28.9 12.74 28.83 12.71 28.89 12.74 28.9"/><path class="cls-1" d="M37.54,28.16a.19.19,0,0,0,0,.07A.25.25,0,0,0,37.54,28.16Z"/><path class="cls-1" d="M38.28,28.23l.1.1A.41.41,0,0,0,38.28,28.23Z"/><path class="cls-1" d="M38.85,28.37s0-.09,0-.12h0Z"/><path class="cls-1" d="M29.83,28.7h0C29.75,28.76,29.79,28.74,29.83,28.7Z"/><path class="cls-1" d="M32.51,28a.72.72,0,0,1-.09.13S32.51,28.2,32.51,28Z"/><path class="cls-1" d="M26.83,29h0Z"/><path class="cls-1" d="M32.3,28.17c0,.06.09,0,.12,0S32.34,28.13,32.3,28.17Z"/><path class="cls-1" d="M41.31,28.49h0a.22.22,0,0,1,0,0Z"/><path class="cls-1" d="M41.34,28.46l0,0S41.34,28.43,41.34,28.46Z"/><path class="cls-1" d="M41.43,28.36l-.06.07S41.42,28.44,41.43,28.36Z"/><path class="cls-1" d="M40.56,28.36v.1A.56.56,0,0,0,40.56,28.36Z"/><path class="cls-1" d="M40.33,28.39c.05,0,.14.22.21.15v-.08C40.51,28.62,40.38,28.22,40.33,28.39Z"/><path class="cls-1" d="M39.38,27.13l.19.08c0-.11-.08-.25,0-.28C39.34,26.61,39.63,27.18,39.38,27.13Z"/><path class="cls-1" d="M38.78,27c.1-.05,0-.16,0-.22C38.72,26.86,38.71,26.88,38.78,27Z"/><path class="cls-1" d="M34.5,27v-.26C34.43,26.76,34.51,26.82,34.5,27Z"/><polygon class="cls-1" points="33.68 28.3 33.75 28.46 33.79 28.22 33.68 28.3"/><polygon class="cls-1" points="33.19 26.48 33.23 26.44 33.09 26.53 33.19 26.48"/><path class="cls-1" d="M26,26.57l0,.31C26.07,26.82,26.08,26.47,26,26.57Z"/><path class="cls-1" d="M22.88,26.89c0-.16-.12-.26-.18-.1S22.85,26.93,22.88,26.89Z"/><polygon class="cls-1" points="13.56 26.37 13.62 26.27 13.51 26.36 13.56 26.37"/></g></g></svg>