<svg xmlns="http://www.w3.org/2000/svg" viewBox="0 0 42.02 32.47"><defs><style>.cls-1{fill:#cbd7cb;}</style></defs><title>navVineTFH</title><g id="Layer_2" data-name="Layer 2"><g id="nav"><path class="cls-1" d="M41,4.57c0-.17,0-.56-.05-.49l0,.66Z"/><path class="cls-1" d="M40.61,3.34a5.44,5.44,0,0,0-.11,1.49c.07-.64.09-.37.16-1.13.06-.08.1.21.09.46,0-.17.09.15.12-.27s-.18-.53-.28-.11A2.38,2.38,0,0,1,40.61,3.34Z"/><path class="cls-1" d="M34.79,2.31l0,.08A.14.14,0,0,0,34.79,2.31Z"/><path class="cls-1" d="M31.19,1.94s0-.08,0-.14A.22.22,0,0,0,31.19,1.94Z"/><path class="cls-1" d="M30.57,1.22l0,0C30.6,1.2,30.58,1.17,30.57,1.22Z"/><path class="cls-1" d="M34.79,2.31l-.1-.21C34.69,2.32,34.74,2.26,34.79,2.31Z"/><path class="cls-1" d="M39.8,4.94a.58.58,0,0,0,.05-.17l0,.07S39.81,4.9,39.8,4.94Z"/><path class="cls-1" d="M36.38,1.77h0c0-.08,0-.17,0-.27Z"/><path class="cls-1" d="M37.6,1.67a5.75,5.75,0,0,0,0,.78,1.19,1.19,0,0,1,.06-.39C37.61,2,37.61,1.83,37.6,1.67Z"/><path class="cls-1" d="M39.53,2.66l0-.08Z"/><path class="cls-1" d="M35.51,1.65c0-.08,0-.16,0-.2A1.9,1.9,0,0,0,35.51,1.65Z"/><path class="cls-1" d="M1.42,5.87s0-.07,0-.1S1.41,5.87,1.42,5.87Z"/><path class="cls-1" d="M0,3.09l0,0C0,3,0,2.85,0,2.75Z"/><path class="cls-1" d="M29.45.5h0C29.48.44,29.47.45,29.45.5Z"/><path class="cls-1" d="M19.11.91c.12.5-.19.64,0,1.2C19.08,1.89,19.26,1.24,19.11.91Z"/><path class="cls-1" d="M39.77,4.86h0S39.76,4.89,39.77,4.86Z"/><path class="cls-1" d="M19.1,2.11h0l0,.05Z"/><path class="cls-1" d="M26.85.83a2.43,2.43,0,0,0,0,.25A1.63,1.63,0,0,0,26.85.83Z"/><path class="cls-1" d="M28.79,1.63l0-.08C28.76,1.61,28.77,1.63,28.79,1.63Z"/><path class="cls-1" d="M25.85,1.63s0-.12-.07,0v.07C25.8,1.57,25.82,1.54,25.85,1.63Z"/><path class="cls-1" d="M24.81,1.63s0,.08,0,.11l0,0Z"/><path class="cls-1" d="M4.59,5.6c0-.16,0-.33,0-.5C4.56,5.5,4.41,5.64,4.59,5.6Z"/><path class="cls-1" d="M39.8,4.62a.74.74,0,0,1,0,.24l0,0A1.34,1.34,0,0,0,39.8,4.62Z"/><path class="cls-1" d="M25.81,6.06,25.64,6A.22.22,0,0,0,25.81,6.06Z"/><path class="cls-1" d="M12.08,5.52l0,.07S12.07,5.59,12.08,5.52Z"/><path class="cls-1" d="M25.15,6.06a1.61,1.61,0,0,0-.09-.39,1.41,1.41,0,0,0,0,.15Z"/><path class="cls-1" d="M4.54,5.09h0Z"/><path class="cls-1" d="M3.45,6.43c.16,0,.07-.72.11-1.15.19-.21.09.54.15.92.12-.2.21-.87.3-.85a1.25,1.25,0,0,1,0,.32c.12-.59.37,0,.51-.77a1.6,1.6,0,0,1,0,.18c0-.37,0-.75,0-1,.07,0,.13-.47.16,0,0,0,0,.18-.07.33l.07-.21c.07.69-.1.24-.1.75.14-.23.31-.8.42-.6,0,.68-.26.23-.11.83l-.17-.26c.13,1.07-.1-.07,0,1.07.23.2.25-.35.48-.15.05-.38,0-.56,0-.94.32-.68.25,1.71.49.8.06-.45.08-1.31.25-.86l-.06.77c.22.08.12-1.1.35-.59,0,.3-.17.25-.14.35C6.3,6,6.26,5,6.37,5l0,.68c.23-.11.49-.6.75-.72a1.75,1.75,0,0,0,0,.62c.33-.34.69.08,1,.49l.12-.59a.73.73,0,0,1,0,.38c.12.22,0-.37.07-.6.07,0,.09.34,0,.51.22-.5.61-1.07.84-.44l0,.17c.18.24.2-1.2.36-.66l0,.1c.38.25.81-.28,1.1.6.06-.85.38.38.41-.8.22.58.16.8.47,1.19.08.05.12-.74.23-.86v.62L11.88,5l.07.74.1-.16A1,1,0,0,1,12,5.14c.15-.28.36.43.37.75l.35-.52a1.45,1.45,0,0,1-.11.49c.19-.63,0,.65.21.07a2.93,2.93,0,0,1,0-.49c.09.37.28.38.43.22l0,.42c.26.11.55-.2.85-.2a1.77,1.77,0,0,1,0-1l0,.65c.06-.4-.09-.25,0-.74.11.08.07.74,0,1l.13-.23c0,.19,0,.3,0,.55.05-.4.23.65.31,0V6.2c.29,0,.43-.22.67-.25,0-.56.1-.44.17-.89.18.18.37.62.58.57.15-.28,0-.48.11-.81,0,.51.22.46.11.83.25-.08.33-.1.65-.52a1.5,1.5,0,0,1-.05-.48c.06-.08.13.21.12.46l0,.05c.36-.77.83,1.49,1.12.43l0,.05.3-.56c.14.09-.08.38,0,.7.32-.86.51.12.77-.45.21,1.51.73-.11,1,.86l0-.36c.07-.35.09.2.14.29,0-.28-.08-.32,0-.51.61-.43,1.25.52,1.87.84.23.1.13-1.84.42-1l-.08.66c.46-.79.94,0,1.39-.64,0,.15,0,.35-.07.35.09.48.35,0,.35-.37.07,0,0,.35.06.55s.24-.61.29-.14a.38.38,0,0,1,0,.19c.06-.23.29.06.23-.49.17.26.32-.25.46.08.09-.62.29.3.32-.58,0,.9.3.73.4.3,0,.27.09.28.05.66.12,0,.23-.18.21-.65.22,1.08.45-.87.58.52a4.14,4.14,0,0,1,1-1c0,.9-.36.09-.35,1,.31-.37.49-1.15.79-.93.08.12,0,.39-.07.55.31-.37.6.08.87-.41a.71.71,0,0,1-.06.24c.05,0,.13.13.12-.28l-.05.11a6,6,0,0,1,.22-1.56c-.09,1.18.27.3.13,1.78a1.38,1.38,0,0,0,.07-.55.84.84,0,0,1,0,.55c.19-.22.12-.66.3-.65,0,.2,0,.28-.05.51.09-.39.18-.77.33-.61,0,.12,0,.28,0,.27.25-.06.43-1,.71-.66-.08.86.1.28.11,1l.15-.22-.06-.36c.13,0,.25-.53.36-.29l-.1.31.25-.14-.14-.28c.13-.38,0-.94.16-.74,0,.08.13,0,.2.45h0c.07-.24.13-.49.23-.3s0,.83,0,1c.06-.62.31-.17.39-.84a3.89,3.89,0,0,0,0,.63L32.16,4a1.17,1.17,0,0,1,.06.55c.18.09-.06-.95.16-.54a1.28,1.28,0,0,1,0,.19c.22.21.42-.32.62-.07.06.75-.18.18-.11.82.29-.14.6-.9.88-.72l-.05-.08c0-1.06.21.52.35,0a2.32,2.32,0,0,0,0,.47c.19.17.39-.26.68-.59l0,.27c.11.24.3.14.42.26A1.43,1.43,0,0,0,35.12,4c.38,1.55.72-.83,1.05.46,0,0-.1.24-.06.24l.28-.25a2.65,2.65,0,0,0-.1-.64c0-.27.12-.49.19-.49a1.83,1.83,0,0,0,.06,1c0-.14,0-.3,0-.44.15.82,0-.93.23-.38v.24c.08-.12.15-.44.23-.38,0,.53-.08.25-.09.69.12,0,.23-1,.33-.48,0,.15-.12.15-.17.3.11.63.13.47.21.57h0l.19.28,0-.17c.14-1.39.29-.25.49-1.17-.19.86,0,.5,0,1.11A1.39,1.39,0,0,1,38,5c.09-.49.15.39.28-.33,0,.2.1,0,.08.51.12-.15,0-.34,0-.58.18-.67.43.81.7-.11.23-.38.27-1,.48-1.36a1.59,1.59,0,0,1-.06.71c.12.29.2.23.31,0a1.84,1.84,0,0,0,0,.53c.09-.05.06-.71.17-.42s0,.57-.09.78c.1-.18.2-.54.31-.72a2.27,2.27,0,0,1-.1.74,1.21,1.21,0,0,0,.35-.85l-.08-.19s0,.46,0,.56c-.1.42-.15-.19-.15-.38l.08-.12c-.08-1.14-.3.18-.46.12l.06-.83-.16.69a2,2,0,0,1,0-.81c-.11-.41-.1.3-.19-.16a.32.32,0,0,1,0-.14l-.11.25c0-.17,0-.59,0-.47-.19-.48-.31.62-.38,0l0-.05c-.27.28,0,.61-.23,1.33L38.75,2.2l0,.61s-.08-.07-.07-.31c-.1.42,0,.27,0,.66-.13-.56-.36.26-.39-.71,0,.46.13.36,0,.68,0-1-.16.18-.28-.3,0-.54.15-.25,0-.74-.07.91-.23-.2-.34,0,0,.73-.22.3-.39.55,0-.24-.32-.4-.48-.66V1.83c0,.73-.19.6-.31.75a2.46,2.46,0,0,1,.09-.81h-.11a.79.79,0,0,1-.13.44l0-.55c-.15,0-.3.65-.49.28,0,.51.15,1.43-.05,1.77a3.62,3.62,0,0,1,0-.86s-.06.23-.1.11l.08-.47c-.09-.2,0,.39-.12.35,0-.4-.05-.28,0-.6,0,0,.06.16.09,0a1.11,1.11,0,0,1-.21-.6,1.36,1.36,0,0,1-.06.58c-.15,0-.05-.47-.14-.68,0,.27-.13,0-.13.58,0,0-.05-.28-.07-.44-.08.26-.36.07-.27.7l0,0v0h0c-.25.59-.53-.33-.78-.08v-.2c-.15.23-.33.13-.44.56a1.18,1.18,0,0,1-.09-.6c-.11.15-.13.37-.29,0,.12-.34,0-.31.12-.25-.15-.17-.18-.49-.34.05.05-.51-.11-.64-.18-.49l.1.36c-.08.07-.15,0-.22,0l0-.67c-.3-.81-.55,1.38-.78,0-.08.47.17.33.09.87-.14-.09-.29-1-.33-1-.19-.37-.18,1-.38.72a2.32,2.32,0,0,1-.1,1.09,2,2,0,0,1-.08-1.19s0,.06,0,.14a.55.55,0,0,0,0-.45l0,.24C31.19,1.35,31,1.38,31,1a.49.49,0,0,0,0,.51c-.18-.34-.28,0-.47-.24a1.06,1.06,0,0,1,0,.41c-.27-.29-.12.45-.3.55-.1-.36,0-.86-.15-.56a1.45,1.45,0,0,1,0-.82c-.17.46-.32-.3-.41-.38l.09-.19c-.05.11-.1.11-.14.11l.05.47a.34.34,0,0,1-.1-.28,10.52,10.52,0,0,1-.07,1.21c-.07-.24-.21.26-.24-.37.22.21,0-.63.16-.73,0,.08-.08.07-.13,0a.36.36,0,0,1,0-.17c-.21-.56-.1.71-.31.7,0-.35-.05-.67-.09-.6s0,.59,0,.86c-.14-.28-.15.21-.22.17l.08.13c0,.35-.1.31-.19.42,0-.28.09-.19.05-.31-.11.62-.24-.65-.39-.23-.07-.24,0-.67-.07-.83-.17.46-.18-.49-.36-.11a1.33,1.33,0,0,1-.06.83l.29-.34-.19.69c.09,0,.19-.3.24-.22a1.16,1.16,0,0,0,0,.67c-.12-.72-.24.42-.38-.07V1.09c-.21-.53-.37.61-.64.31l.09.21c0,.47-.17.07-.26.26a3.33,3.33,0,0,0-.08-.78c0,.29-.2,0-.22.76l-.12-.52c-.22-.21-.25,1.13-.46,1,.06-.43,0-.71.11-1-.07,0-.13-.08-.13.2,0-.25-.19.53-.26.16,0,.17,0,.59-.12.55a1.31,1.31,0,0,1,0-.19,1.78,1.78,0,0,0-.05.7c-.22-1.23-.6.09-.79-1a1.28,1.28,0,0,1-.48.29c0-.12,0-.2,0-.16-.19-.37-.12,1.13-.34.72-.11-.64.12-.35,0-.59,0-1.3-.26.18-.41-.58l0-.08c-.11-.44-.27.49-.46.4a1.4,1.4,0,0,0,0-.2,1.76,1.76,0,0,1-.54,1.07,2.34,2.34,0,0,0,0-.79c-.08.07,0,.83-.13,1a4.73,4.73,0,0,1-.18-1.07l.15,0c-.08-.71-.19,0-.27-.1V1.3c-.23.1-.23.89-.48.83l0,.24c-.13.78-.11-.44-.25.14l0-.79a4.3,4.3,0,0,1-.47.91,5.75,5.75,0,0,1,.39-1.23c-.09,0-.3.06-.34.45,0-.08.08-.27.11-.15-.11.62-.25.93-.42.91,0-1.53-.46-.39-.58-1.57-.31.57-.61-.24-1-.15.13,1.19-.11,0-.08,1.26-.08.08-.12.06-.12,0l-.25-.73c-.06-.36.08-.27.07-.54-.18-.09-.08-.52-.2-.84,0,.44-.06.63-.17.46L18.7,1c-.26.65-.22-1-.48-.38L18.3.26c-.13.23-.49,0-.62,1a1.3,1.3,0,0,1,0-.56c-.32-.15-.71,1-1,.44l0-.3c-.06.09-.1.56-.18.26,0-.12,0-.3,0-.32s-.16.52-.24.35L16.4.77c-.31-.39-.48.82-.73,1A1.75,1.75,0,0,0,15.3.48V.36c-.36-.11-.61.73-.95,1.08-.21-1-.7-.4-1-.94a1.75,1.75,0,0,1-.07.77c-.08-.18-.22.61-.2-.2l0,0C13,.3,12.86.51,12.74.49l0,1.06c-.33-1.54-.86.56-1-.81-.08.26-.18.26-.26.52V.69c-.22-.14-.33-.22-.6-.08l.06-.4c-.15,0-.19,1.63-.33,1.67l0-.85c-.27,0-.54-.73-.8,0a1.07,1.07,0,0,1,.06-.4c-.13,0-.49-.57-.44.59,0-.76-.28-.07-.42.26l0-.56c-.12.71-.13.91-.3,1.1,0-.07,0-.45,0-.3-.13-.29-.1.53-.27.23l.06-.36c-.14,0-.13.15-.2.56C8.15,2.41,8,2,8,1.54c0,.31-.09.72-.18.57a1.11,1.11,0,0,1,0-.37c-.23-.38-.34.65-.5.1a1.69,1.69,0,0,0,0-.33c.18,0,.33,0,.32.08a4.67,4.67,0,0,1,0-1.31c-.12.39-.32,1.23-.47,1,0,0,0-.1,0-.18V1C7.07,1,7,1,7,1.13,7,1,6.93,1,6.89,1c0-.42-.17-.23-.24-.25,0,.56-.09.47,0,.94,0,0,0-.07.06-.09a.13.13,0,0,0,0-.06v0l.18,0c-.06.29-.12.53-.2.21,0,.36-.08.73-.1.91-.1-.78-.3-1.21-.32-1.69-.23.32-.53.21-.67,1.26-.06.14-.07-.3-.1-.47s.08-.09.1-.24c-.13.27-.38.11-.41.84C5,2,5.3,1.67,5.08,1.79l0-.23C4.67.38,4.4,3.45,3.92,1.93A.72.72,0,0,1,4,2.19c-.55-.67-1.14.63-1.68-.43-.15-.21-.17.26-.27.62l0-.6-.16.7C1.6,3,1.43,1,1.14,2l0,.41c-.1-.08-.33.24-.31-.23,0,.07,0,.42-.07.21V2l-.26.54c-.2-.23,0-1.25-.26-1.32A2.76,2.76,0,0,0,0,2.38s.11.2.11.51L0,3.06A7.81,7.81,0,0,0,.17,5.6L.34,5l.05.45-.14,0c.08.42.13,0,.19-.21a2,2,0,0,0,.07.5l.17-.89c0,.36-.07.72,0,.92C.79,5.42.64,5,.77,4.74c.08.42.06.77.15.41a1.3,1.3,0,0,1,0,.5c.08-.29.22-.12.27-.62.08.52.28-.14.28.75A1.91,1.91,0,0,1,1.64,5c-.14,1.06.29.06.25,1.19.1-.95.38-.42.56-.95,0,.08,0,.23,0,.18s.13.36.2.54a5.6,5.6,0,0,1,.26-1.45,10.26,10.26,0,0,1,0,1.65c0-.64.22-.63.18-1.16a3.46,3.46,0,0,1,.13.88c0-1,.09-.17.17-.77.14.48,0,.92.19.62A1.24,1.24,0,0,1,3.45,6.43ZM7.14,4.73h0l-.08,0Zm.31,0a.23.23,0,0,0-.13,0c0-.19,0-.39,0-.38A1.1,1.1,0,0,0,7.45,4.73ZM6.8.83c0-.08.07,0,.07.15A.26.26,0,0,0,6.78,1v.07C6.78,1,6.79.9,6.8.83Z"/><path class="cls-1" d="M6.71,1.57s0,0,0,0l0,.13,0-.18Z"/><path class="cls-1" d="M34.84,2.4h0a.49.49,0,0,1,0,.08S34.84,2.42,34.84,2.4Z"/><polygon class="cls-1" points="11.74 5.8 11.74 5.66 11.71 5.78 11.74 5.8"/><path class="cls-1" d="M36.54,4.33a.68.68,0,0,0,0,.14A.91.91,0,0,0,36.54,4.33Z"/><path class="cls-1" d="M37.28,4.45l.1.2A.76.76,0,0,0,37.28,4.45Z"/><path class="cls-1" d="M37.85,4.73c0-.1,0-.17,0-.24h0Z"/><path class="cls-1" d="M28.83,5.39l0,0C28.75,5.53,28.79,5.49,28.83,5.39Z"/><path class="cls-1" d="M31.51,4.08a2,2,0,0,1-.09.27S31.51,4.4,31.51,4.08Z"/><path class="cls-1" d="M25.83,6.07h0Z"/><path class="cls-1" d="M31.3,4.34c0,.11.09.09.12,0S31.34,4.25,31.3,4.34Z"/><path class="cls-1" d="M40.31,5l0,0a.88.88,0,0,1,0-.09Z"/><path class="cls-1" d="M40.34,4.92l0-.07S40.34,4.86,40.34,4.92Z"/><path class="cls-1" d="M40.43,4.71l-.06.14S40.42,4.87,40.43,4.71Z"/><path class="cls-1" d="M39.56,4.73v.2S39.56,4.82,39.56,4.73Z"/><path class="cls-1" d="M39.33,4.79c.05,0,.14.43.21.31V4.93C39.51,5.24,39.38,4.44,39.33,4.79Z"/><path class="cls-1" d="M38.38,2.27l.19.16c0-.22-.08-.51,0-.56C38.34,1.22,38.63,2.36,38.38,2.27Z"/><path class="cls-1" d="M37.78,2c.1-.1,0-.32,0-.44A.48.48,0,0,0,37.78,2Z"/><path class="cls-1" d="M33.5,2V1.44C33.43,1.51,33.51,1.64,33.5,2Z"/><polygon class="cls-1" points="32.68 4.59 32.75 4.91 32.79 4.44 32.68 4.59"/><polygon class="cls-1" points="32.19 0.95 32.23 0.88 32.09 1.06 32.19 0.95"/><path class="cls-1" d="M25,1.13l0,.63C25.07,1.65,25.08.94,25,1.13Z"/><path class="cls-1" d="M21.88,1.77c0-.32-.12-.52-.18-.21C21.78,1.61,21.85,1.86,21.88,1.77Z"/><polygon class="cls-1" points="12.56 0.75 12.62 0.54 12.51 0.71 12.56 0.75"/><path class="cls-1" d="M42,17.57c0-.17,0-.56-.05-.49l0,.66Z"/><path class="cls-1" d="M41.61,16.34a5.44,5.44,0,0,0-.11,1.49c.07-.64.09-.37.16-1.13.06-.08.1.21.09.46,0-.17.09.15.12-.27s-.18-.53-.28-.11A2.38,2.38,0,0,1,41.61,16.34Z"/><path class="cls-1" d="M35.79,15.31l0,.08A.14.14,0,0,0,35.79,15.31Z"/><path class="cls-1" d="M32.19,14.94s0-.08,0-.14A.22.22,0,0,0,32.19,14.94Z"/><path class="cls-1" d="M31.57,14.22l0,0C31.6,14.2,31.58,14.17,31.57,14.22Z"/><path class="cls-1" d="M35.79,15.31l-.1-.21C35.69,15.32,35.74,15.26,35.79,15.31Z"/><path class="cls-1" d="M40.8,17.94a.58.58,0,0,0,.05-.17l0,.07S40.81,17.9,40.8,17.94Z"/><path class="cls-1" d="M37.38,14.77h0c0-.08,0-.17,0-.27Z"/><path class="cls-1" d="M38.6,14.67a5.75,5.75,0,0,0,0,.78,1.19,1.19,0,0,1,.06-.39C38.61,15,38.61,14.83,38.6,14.67Z"/><path class="cls-1" d="M40.53,15.66l0-.08Z"/><path class="cls-1" d="M36.51,14.65c0-.08,0-.16,0-.2A1.9,1.9,0,0,0,36.51,14.65Z"/><path class="cls-1" d="M2.42,18.87s0-.07,0-.1S2.41,18.87,2.42,18.87Z"/><path class="cls-1" d="M1,16.09l0,0c0-.11,0-.21,0-.32Z"/><path class="cls-1" d="M30.45,13.49h0C30.48,13.44,30.47,13.45,30.45,13.49Z"/><path class="cls-1" d="M20.11,13.91c.12.5-.19.65,0,1.2C20.08,14.89,20.26,14.24,20.11,13.91Z"/><path class="cls-1" d="M40.77,17.86h0S40.76,17.89,40.77,17.86Z"/><path class="cls-1" d="M20.1,15.11h0l0,.05Z"/><path class="cls-1" d="M27.85,13.83a2.43,2.43,0,0,0,0,.25A1.63,1.63,0,0,0,27.85,13.83Z"/><path class="cls-1" d="M29.79,14.63l0-.08C29.76,14.61,29.77,14.63,29.79,14.63Z"/><path class="cls-1" d="M26.85,14.63s0-.12-.07,0v.07C26.8,14.57,26.82,14.54,26.85,14.63Z"/><path class="cls-1" d="M25.81,14.63s0,.08,0,.11l0,0Z"/><path class="cls-1" d="M5.59,18.6c0-.16,0-.33,0-.51C5.56,18.5,5.41,18.64,5.59,18.6Z"/><path class="cls-1" d="M40.8,17.62a.74.74,0,0,1,0,.24l0,0A1.34,1.34,0,0,0,40.8,17.62Z"/><path class="cls-1" d="M26.81,19.06,26.64,19A.22.22,0,0,0,26.81,19.06Z"/><path class="cls-1" d="M13.08,18.52l0,.07S13.07,18.59,13.08,18.52Z"/><path class="cls-1" d="M26.15,19.06a1.61,1.61,0,0,0-.09-.39,1.41,1.41,0,0,0,0,.14Z"/><path class="cls-1" d="M5.54,18.09h0Z"/><path class="cls-1" d="M4.45,19.43c.16,0,.07-.72.11-1.15.19-.21.09.54.15.92.12-.2.21-.87.3-.85a1.25,1.25,0,0,1,0,.32c.12-.59.37,0,.51-.77a1.6,1.6,0,0,1,0,.18c0-.37,0-.75,0-1,.07,0,.13-.47.16,0,0,0,0,.18-.07.33l.07-.21c.07.69-.1.24-.1.75.14-.23.31-.8.42-.6,0,.68-.26.23-.11.83l-.17-.26c.13,1.07-.1-.07,0,1.07.23.2.25-.35.48-.15.05-.38,0-.56,0-.94.32-.68.25,1.71.49.8.06-.45.08-1.31.25-.86l-.06.77c.22.08.12-1.1.35-.59,0,.3-.17.25-.14.35.15.61.1-.44.22-.44l0,.68c.23-.11.49-.6.75-.72a1.75,1.75,0,0,0,0,.62c.33-.34.69.08,1,.49l.12-.59a.73.73,0,0,1,0,.38c.12.22,0-.37.07-.6.07,0,.09.34,0,.51.22-.5.61-1.07.84-.44l0,.17c.18.24.2-1.2.36-.66l0,.1c.38.25.81-.28,1.1.6.06-.85.38.38.41-.8.22.58.16.8.47,1.19.08.05.12-.74.23-.86v.62l.14-.65.07.74.1-.16a1,1,0,0,1-.08-.45c.15-.28.36.43.37.75l.35-.52a1.45,1.45,0,0,1-.11.49c.19-.63,0,.65.21.07a2.93,2.93,0,0,1,0-.49c.09.37.28.38.43.22l0,.42c.26.11.55-.2.85-.2a1.77,1.77,0,0,1,0-1l0,.65c.06-.4-.09-.25,0-.74.11.08.07.74,0,1l.13-.23c0,.19,0,.3,0,.55.05-.4.23.65.31,0v.19c.29,0,.43-.22.67-.25,0-.56.1-.44.17-.89.18.18.37.62.58.57.15-.28,0-.48.11-.81,0,.51.22.46.11.83.25-.08.33-.1.65-.52a1.5,1.5,0,0,1-.05-.48c.06-.08.13.21.12.46l0,.05c.36-.77.83,1.49,1.12.43l0,.05.3-.56c.14.09-.08.38,0,.7.32-.85.51.12.77-.45.21,1.51.73-.11,1,.86l0-.36c.07-.35.09.2.14.29,0-.28-.08-.32,0-.51.61-.43,1.25.52,1.87.84.23.1.13-1.84.42-1l-.08.66c.46-.79.94,0,1.39-.65,0,.15,0,.35-.07.35.09.48.35,0,.35-.37.07,0,0,.35.06.55s.24-.61.29-.14a.38.38,0,0,1,0,.19c.06-.23.29.06.23-.49.17.26.32-.25.46.08.09-.62.29.3.32-.58,0,.9.3.73.4.3,0,.27.09.28.05.66.12,0,.23-.18.21-.65.22,1.08.45-.87.58.52a4.14,4.14,0,0,1,1-1c0,.9-.36.09-.35,1,.31-.37.49-1.15.79-.93.08.12,0,.39-.07.55.31-.37.6.08.87-.41a.71.71,0,0,1-.06.24c.05,0,.13.13.12-.28l-.05.11a6,6,0,0,1,.22-1.56c-.09,1.18.27.3.13,1.78a1.38,1.38,0,0,0,.07-.55.84.84,0,0,1,0,.55c.19-.22.12-.66.3-.65,0,.2,0,.28-.05.51.09-.39.18-.77.33-.61,0,.12,0,.28,0,.27.25-.06.43-1,.71-.66-.08.86.1.28.11,1l.15-.22-.06-.36c.13,0,.25-.53.36-.29l-.1.31.25-.14-.14-.28c.13-.38,0-.94.16-.74,0,.08.13,0,.2.45h0c.07-.24.13-.49.23-.3s0,.83,0,1c.06-.62.31-.17.39-.84a3.89,3.89,0,0,0,0,.63l.05-.51a1.17,1.17,0,0,1,.06.55c.18.09-.06-.95.16-.54a1.28,1.28,0,0,1,0,.19c.22.21.42-.32.62-.07.06.75-.18.18-.11.82.29-.14.6-.9.88-.72l-.05-.08c0-1.06.21.52.35,0a2.32,2.32,0,0,0,0,.47c.19.17.39-.26.68-.59l0,.27c.11.24.3.14.42.26a1.43,1.43,0,0,0,.06-.62c.38,1.55.72-.83,1.05.46,0,0-.1.24-.06.24l.28-.25a2.65,2.65,0,0,0-.1-.64c0-.27.12-.49.19-.49a1.83,1.83,0,0,0,.06,1c0-.14,0-.3,0-.44.15.82,0-.93.23-.38v.24c.08-.12.15-.44.23-.38,0,.53-.08.25-.09.69.12,0,.23-1,.33-.48,0,.15-.12.15-.17.3.11.63.13.47.21.57h0l.19.28,0-.17c.14-1.39.29-.25.49-1.17-.19.86,0,.5,0,1.11A1.39,1.39,0,0,1,39,18c.09-.49.15.39.28-.33,0,.2.1,0,.08.51.12-.15,0-.34,0-.58.18-.67.43.81.7-.11.23-.38.27-1,.48-1.36a1.59,1.59,0,0,1-.06.71c.12.29.2.23.31,0a1.84,1.84,0,0,0,0,.53c.09-.05.06-.71.17-.42s0,.57-.09.78c.1-.18.2-.54.31-.72a2.27,2.27,0,0,1-.1.74,1.21,1.21,0,0,0,.35-.85l-.08-.19s0,.46,0,.56c-.1.42-.15-.19-.15-.38l.08-.12c-.08-1.14-.3.18-.46.12l.06-.83-.16.69a2,2,0,0,1,0-.81c-.11-.41-.1.3-.19-.16a.32.32,0,0,1,0-.14l-.11.25c0-.17,0-.59,0-.47-.19-.48-.31.62-.38,0l0-.05c-.27.28,0,.61-.23,1.33l-.13-1.51,0,.61s-.08-.07-.07-.31c-.1.42,0,.27,0,.66-.13-.56-.36.26-.39-.71,0,.46.13.36,0,.68,0-1-.16.18-.28-.3,0-.54.15-.25,0-.74-.07.91-.23-.2-.34,0,0,.73-.22.3-.39.55,0-.24-.32-.4-.48-.66v-.12c0,.73-.19.6-.31.75a2.46,2.46,0,0,1,.09-.81h-.11a.79.79,0,0,1-.13.44l0-.55c-.15,0-.3.65-.49.28,0,.51.15,1.43-.05,1.77a3.62,3.62,0,0,1,0-.86s-.06.23-.1.11l.08-.47c-.09-.2,0,.39-.12.35,0-.4-.05-.28,0-.6,0,0,.06.16.09,0a1.11,1.11,0,0,1-.21-.6,1.36,1.36,0,0,1-.06.58c-.15,0-.05-.47-.14-.68,0,.27-.13,0-.13.58,0,0-.05-.28-.07-.44-.08.26-.36.07-.27.7l0,0v0h0c-.25.59-.53-.33-.78-.08v-.2c-.15.23-.33.13-.44.56a1.18,1.18,0,0,1-.09-.6c-.11.15-.13.37-.29,0,.12-.34,0-.31.12-.25-.15-.17-.18-.49-.34.05.05-.51-.11-.64-.18-.49l.1.36c-.08.07-.15,0-.22,0l0-.67c-.3-.81-.55,1.38-.78,0-.08.47.17.33.09.87-.14-.09-.29-1-.33-1-.19-.37-.18,1-.38.72a2.32,2.32,0,0,1-.1,1.09,2,2,0,0,1-.08-1.19s0,.06,0,.14a.55.55,0,0,0,0-.45l0,.24c-.07-.24-.26-.22-.22-.61a.49.49,0,0,0,0,.51c-.18-.34-.28,0-.47-.24a1.06,1.06,0,0,1,0,.41c-.27-.29-.12.45-.3.55-.1-.36,0-.86-.15-.56a1.45,1.45,0,0,1,0-.82c-.17.46-.32-.3-.41-.38l.09-.19c-.05.11-.1.11-.14.11l.05.47a.34.34,0,0,1-.1-.28,10.52,10.52,0,0,1-.07,1.21c-.07-.24-.21.26-.24-.37.22.21,0-.63.16-.73,0,.08-.08.07-.13,0a.36.36,0,0,1,0-.17c-.21-.56-.1.71-.31.7,0-.35-.05-.67-.09-.6s0,.59,0,.86c-.14-.28-.15.21-.22.17l.08.13c0,.35-.1.31-.19.42,0-.28.09-.19.05-.31-.11.62-.24-.65-.39-.23-.07-.24,0-.67-.07-.83-.17.46-.18-.49-.36-.11a1.33,1.33,0,0,1-.06.83l.29-.34-.19.69c.09,0,.19-.3.24-.22a1.16,1.16,0,0,0,0,.67c-.12-.72-.24.42-.38-.07V14.09c-.21-.53-.37.61-.64.31l.09.21c0,.47-.17.07-.26.26a3.33,3.33,0,0,0-.08-.78c0,.29-.2,0-.22.76l-.12-.52c-.22-.21-.25,1.13-.46,1,.06-.43,0-.71.11-1-.07,0-.13-.08-.13.2,0-.25-.19.53-.26.16,0,.17,0,.59-.12.55a1.31,1.31,0,0,1,0-.19,1.78,1.78,0,0,0-.05.7c-.22-1.23-.6.09-.79-1a1.28,1.28,0,0,1-.48.29c0-.12,0-.2,0-.16-.19-.37-.12,1.13-.34.72-.11-.64.12-.35,0-.59,0-1.3-.26.18-.41-.58l0-.08c-.11-.44-.27.49-.46.4a1.4,1.4,0,0,0,0-.2,1.76,1.76,0,0,1-.54,1.07,2.34,2.34,0,0,0,0-.79c-.08.07,0,.83-.13,1a4.73,4.73,0,0,1-.18-1.07l.15,0c-.08-.71-.19,0-.27-.1V14.3c-.23.1-.23.89-.48.83l0,.24c-.13.78-.11-.44-.25.14l0-.79a4.3,4.3,0,0,1-.47.91,5.75,5.75,0,0,1,.39-1.23c-.09,0-.3.06-.34.45,0-.08.08-.27.11-.15-.11.62-.25.93-.42.91,0-1.53-.46-.39-.58-1.57-.31.57-.61-.24-1-.15.13,1.19-.11,0-.08,1.26-.08.08-.12.06-.12,0l-.25-.73c-.06-.36.08-.27.07-.54-.18-.09-.08-.52-.2-.84,0,.44-.06.63-.17.46l.15.56c-.26.65-.22-1-.48-.38l.08-.38c-.13.23-.49,0-.62,1a1.3,1.3,0,0,1,0-.56c-.32-.15-.71,1-1,.44l0-.3c-.06.09-.1.56-.18.26,0-.12,0-.3,0-.32s-.16.52-.24.35l.07-.34c-.31-.39-.48.82-.73,1a1.75,1.75,0,0,0-.36-1.31v-.12c-.36-.11-.61.73-.95,1.08-.21-1-.7-.4-1-.94a1.75,1.75,0,0,1-.07.77c-.08-.18-.22.61-.2-.2l0,0c-.06-.79-.22-.58-.35-.6l0,1.06c-.33-1.54-.86.56-1-.81-.08.26-.18.26-.26.53v-.57c-.22-.14-.33-.22-.6-.08l.06-.4c-.15,0-.19,1.63-.33,1.67l0-.85c-.27,0-.54-.73-.8,0a1.07,1.07,0,0,1,.06-.4c-.13,0-.49-.57-.44.59,0-.76-.28-.07-.42.26l0-.56c-.12.71-.13.91-.3,1.1,0-.07,0-.45,0-.3-.13-.29-.1.53-.27.23l.06-.36c-.14,0-.13.15-.2.56C9.15,15.41,9,15,9,14.54c0,.31-.09.72-.18.57a1.11,1.11,0,0,1,0-.37c-.23-.38-.34.65-.5.1a1.69,1.69,0,0,0,0-.33c.18,0,.33,0,.32.08a4.67,4.67,0,0,1,0-1.31c-.12.39-.32,1.23-.47,1,0,0,0-.1,0-.18V14c0-.05-.06,0-.09.08C8,14,7.93,14,7.89,14c0-.42-.17-.23-.24-.25,0,.56-.09.47,0,.94,0,0,0-.07.06-.09a.13.13,0,0,0,0-.06v0l.18,0c-.06.29-.12.53-.2.21,0,.36-.08.73-.1.91-.1-.78-.3-1.21-.32-1.69-.23.32-.53.21-.67,1.26-.06.14-.07-.3-.1-.47s.08-.09.1-.24c-.13.27-.38.11-.41.84-.16-.33.09-.68-.13-.56l0-.23c-.44-1.18-.71,1.88-1.19.37a.72.72,0,0,1,.06.26c-.55-.67-1.14.63-1.68-.43-.15-.21-.17.26-.27.62l0-.6-.16.7C2.6,16,2.43,14,2.14,15l0,.41c-.1-.08-.33.24-.31-.23,0,.07,0,.42-.07.21V15l-.26.54c-.2-.23,0-1.25-.26-1.32A2.76,2.76,0,0,0,1,15.38s.11.2.11.51l-.1.16a7.81,7.81,0,0,0,.15,2.54L1.34,18l.05.45-.14,0c.08.42.13,0,.19-.21a2,2,0,0,0,.07.5l.17-.89c0,.36-.07.72,0,.92.08-.41-.07-.82.05-1.09.08.42.06.77.15.41a1.3,1.3,0,0,1,0,.5c.08-.29.22-.12.27-.62.08.52.28-.14.28.75A1.91,1.91,0,0,1,2.64,18c-.14,1.06.29.06.25,1.19.1-.95.38-.42.56-.95,0,.08,0,.23,0,.18s.13.36.2.54a5.6,5.6,0,0,1,.26-1.45,10.26,10.26,0,0,1,0,1.65c0-.64.22-.63.18-1.16a3.46,3.46,0,0,1,.13.88c0-1,.09-.17.17-.77.14.48,0,.92.19.62A1.24,1.24,0,0,1,4.45,19.43Zm3.69-1.69h0l-.08,0Zm.31,0a.23.23,0,0,0-.13,0c0-.19,0-.39,0-.38A1.1,1.1,0,0,0,8.45,17.72Zm-.66-3.9c0-.08.07,0,.07.15a.26.26,0,0,0-.09.07v.07C7.78,14,7.79,13.9,7.8,13.83Z"/><path class="cls-1" d="M7.71,14.57s0,0,0,0l0,.13,0-.18Z"/><path class="cls-1" d="M35.84,15.4h0a.49.49,0,0,1,0,.08S35.84,15.42,35.84,15.4Z"/><polygon class="cls-1" points="12.74 18.8 12.74 18.66 12.71 18.78 12.74 18.8"/><path class="cls-1" d="M37.54,17.33a.68.68,0,0,0,0,.14A.91.91,0,0,0,37.54,17.33Z"/><path class="cls-1" d="M38.28,17.46l.1.2A.75.75,0,0,0,38.28,17.46Z"/><path class="cls-1" d="M38.85,17.73c0-.1,0-.17,0-.24h0Z"/><path class="cls-1" d="M29.83,18.39l0,0C29.75,18.53,29.79,18.49,29.83,18.39Z"/><path class="cls-1" d="M32.51,17.08a2,2,0,0,1-.09.27S32.51,17.4,32.51,17.08Z"/><path class="cls-1" d="M26.83,19.07h0Z"/><path class="cls-1" d="M32.3,17.34c0,.11.09.09.12,0S32.34,17.25,32.3,17.34Z"/><path class="cls-1" d="M41.31,18l0,0a.88.88,0,0,1,0-.09Z"/><path class="cls-1" d="M41.34,17.92l0-.07S41.34,17.86,41.34,17.92Z"/><path class="cls-1" d="M41.43,17.71l-.06.14S41.42,17.87,41.43,17.71Z"/><path class="cls-1" d="M40.56,17.73v.2S40.56,17.82,40.56,17.73Z"/><path class="cls-1" d="M40.33,17.79c.05,0,.14.43.21.31v-.16C40.51,18.24,40.38,17.44,40.33,17.79Z"/><path class="cls-1" d="M39.38,15.27l.19.16c0-.22-.08-.51,0-.56C39.34,14.22,39.63,15.36,39.38,15.27Z"/><path class="cls-1" d="M38.78,15c.1-.1,0-.32,0-.44A.48.48,0,0,0,38.78,15Z"/><path class="cls-1" d="M34.5,15v-.51C34.43,14.51,34.51,14.64,34.5,15Z"/><polygon class="cls-1" points="33.68 17.59 33.75 17.91 33.79 17.44 33.68 17.59"/><polygon class="cls-1" points="33.19 13.95 33.23 13.88 33.09 14.06 33.19 13.95"/><path class="cls-1" d="M26,14.13l0,.63C26.07,14.65,26.08,13.94,26,14.13Z"/><path class="cls-1" d="M22.88,14.77c0-.31-.12-.52-.18-.21C22.78,14.61,22.85,14.86,22.88,14.77Z"/><polygon class="cls-1" points="13.56 13.75 13.62 13.54 13.51 13.71 13.56 13.75"/><path class="cls-1" d="M42,30.57c0-.17,0-.56-.05-.49l0,.66Z"/><path class="cls-1" d="M41.61,29.34a5.44,5.44,0,0,0-.11,1.49c.07-.64.09-.37.16-1.13.06-.08.1.21.09.46,0-.17.09.15.12-.27s-.18-.53-.28-.11A2.38,2.38,0,0,1,41.61,29.34Z"/><path class="cls-1" d="M35.79,28.31l0,.08A.14.14,0,0,0,35.79,28.31Z"/><path class="cls-1" d="M32.19,27.94s0-.08,0-.14A.22.22,0,0,0,32.19,27.94Z"/><path class="cls-1" d="M31.57,27.22l0,0C31.6,27.2,31.58,27.17,31.57,27.22Z"/><path class="cls-1" d="M35.79,28.31l-.1-.21C35.69,28.32,35.74,28.26,35.79,28.31Z"/><path class="cls-1" d="M40.8,30.94a.58.58,0,0,0,.05-.17l0,.07S40.81,30.9,40.8,30.94Z"/><path class="cls-1" d="M37.38,27.77h0c0-.08,0-.17,0-.27Z"/><path class="cls-1" d="M38.6,27.67a5.75,5.75,0,0,0,0,.78,1.19,1.19,0,0,1,.06-.39C38.61,28,38.61,27.83,38.6,27.67Z"/><path class="cls-1" d="M40.53,28.66l0-.08Z"/><path class="cls-1" d="M36.51,27.65c0-.08,0-.16,0-.2A1.9,1.9,0,0,0,36.51,27.65Z"/><path class="cls-1" d="M2.42,31.87s0-.07,0-.1S2.41,31.87,2.42,31.87Z"/><path class="cls-1" d="M1,29.09l0,0c0-.11,0-.21,0-.32Z"/><path class="cls-1" d="M30.45,26.49h0C30.48,26.44,30.47,26.45,30.45,26.49Z"/><path class="cls-1" d="M20.11,26.91c.12.5-.19.65,0,1.2C20.08,27.89,20.26,27.24,20.11,26.91Z"/><path class="cls-1" d="M40.77,30.86h0S40.76,30.89,40.77,30.86Z"/><path class="cls-1" d="M20.1,28.11h0l0,.05Z"/><path class="cls-1" d="M27.85,26.83a2.43,2.43,0,0,0,0,.25A1.63,1.63,0,0,0,27.85,26.83Z"/><path class="cls-1" d="M29.79,27.63l0-.08C29.76,27.61,29.77,27.63,29.79,27.63Z"/><path class="cls-1" d="M26.85,27.63s0-.12-.07,0v.07C26.8,27.57,26.82,27.54,26.85,27.63Z"/><path class="cls-1" d="M25.81,27.63s0,.08,0,.11l0,0Z"/><path class="cls-1" d="M5.59,31.6c0-.16,0-.33,0-.51C5.56,31.5,5.41,31.64,5.59,31.6Z"/><path class="cls-1" d="M40.8,30.62a.74.74,0,0,1,0,.24l0,0A1.34,1.34,0,0,0,40.8,30.62Z"/><path class="cls-1" d="M26.81,32.06,26.64,32A.22.22,0,0,0,26.81,32.06Z"/><path class="cls-1" d="M13.08,31.52l0,.07S13.07,31.59,13.08,31.52Z"/><path class="cls-1" d="M26.15,32.06a1.61,1.61,0,0,0-.09-.39,1.41,1.41,0,0,0,0,.14Z"/><path class="cls-1" d="M5.54,31.09h0Z"/><path class="cls-1" d="M4.45,32.43c.16,0,.07-.72.11-1.15.19-.21.09.54.15.92.12-.2.21-.87.3-.85a1.25,1.25,0,0,1,0,.32c.12-.59.37,0,.51-.77a1.6,1.6,0,0,1,0,.18c0-.37,0-.75,0-1,.07,0,.13-.47.16,0,0,0,0,.18-.07.33l.07-.21c.07.69-.1.24-.1.75.14-.23.31-.8.42-.6,0,.68-.26.23-.11.83l-.17-.26c.13,1.07-.1-.07,0,1.07.23.2.25-.35.48-.15.05-.38,0-.56,0-.94.32-.68.25,1.71.49.8.06-.45.08-1.31.25-.86l-.06.77c.22.08.12-1.1.35-.59,0,.3-.17.25-.14.35.15.61.1-.44.22-.44l0,.68c.23-.11.49-.6.75-.72a1.75,1.75,0,0,0,0,.62c.33-.34.69.08,1,.49l.12-.59a.73.73,0,0,1,0,.38c.12.22,0-.37.07-.6.07,0,.09.34,0,.51.22-.5.61-1.07.84-.44l0,.17c.18.24.2-1.2.36-.66l0,.1c.38.25.81-.28,1.1.6.06-.85.38.38.41-.8.22.58.16.8.47,1.19.08.05.12-.74.23-.86v.62l.14-.65.07.74.1-.16a1,1,0,0,1-.08-.45c.15-.28.36.43.37.75l.35-.52a1.45,1.45,0,0,1-.11.49c.19-.63,0,.65.21.07a2.93,2.93,0,0,1,0-.49c.09.37.28.38.43.22l0,.42c.26.11.55-.2.85-.2a1.77,1.77,0,0,1,0-1l0,.65c.06-.4-.09-.25,0-.74.11.08.07.74,0,1l.13-.23c0,.19,0,.3,0,.55.05-.4.23.65.31,0v.19c.29,0,.43-.22.67-.25,0-.56.1-.44.17-.89.18.18.37.62.58.57.15-.28,0-.48.11-.81,0,.51.22.46.11.83.25-.08.33-.1.65-.52a1.5,1.5,0,0,1-.05-.48c.06-.08.13.21.12.46l0,.05c.36-.77.83,1.49,1.12.43l0,.05.3-.56c.14.09-.08.38,0,.7.32-.85.51.12.77-.45.21,1.51.73-.11,1,.86l0-.36c.07-.35.09.2.14.29,0-.28-.08-.32,0-.51.61-.43,1.25.52,1.87.84.23.1.13-1.84.42-1l-.08.66c.46-.79.94,0,1.39-.65,0,.15,0,.35-.07.35.09.48.35,0,.35-.37.07,0,0,.35.06.55s.24-.61.29-.14a.38.38,0,0,1,0,.19c.06-.23.29.06.23-.49.17.26.32-.25.46.08.09-.62.29.3.32-.58,0,.9.3.73.4.3,0,.27.09.28.05.66.12,0,.23-.18.21-.65.22,1.08.45-.87.58.52a4.14,4.14,0,0,1,1-1c0,.9-.36.09-.35,1,.31-.37.49-1.15.79-.93.08.12,0,.39-.07.55.31-.37.6.08.87-.41a.71.71,0,0,1-.06.24c.05,0,.13.13.12-.28l-.05.11a6,6,0,0,1,.22-1.56c-.09,1.18.27.3.13,1.78a1.38,1.38,0,0,0,.07-.55.84.84,0,0,1,0,.55c.19-.22.12-.66.3-.65,0,.2,0,.28-.05.51.09-.39.18-.77.33-.61,0,.12,0,.28,0,.27.25-.06.43-1,.71-.66-.08.86.1.28.11,1l.15-.22-.06-.36c.13,0,.25-.53.36-.29l-.1.31.25-.14-.14-.28c.13-.38,0-.94.16-.74,0,.08.13,0,.2.45h0c.07-.24.13-.49.23-.3s0,.83,0,1c.06-.62.31-.17.39-.84a3.89,3.89,0,0,0,0,.63l.05-.51a1.17,1.17,0,0,1,.06.55c.18.09-.06-.95.16-.54a1.28,1.28,0,0,1,0,.19c.22.21.42-.32.62-.07.06.75-.18.18-.11.82.29-.14.6-.9.88-.72l-.05-.08c0-1.06.21.52.35,0a2.32,2.32,0,0,0,0,.47c.19.17.39-.26.68-.59l0,.27c.11.24.3.14.42.26a1.43,1.43,0,0,0,.06-.62c.38,1.55.72-.83,1.05.46,0,0-.1.24-.06.24l.28-.25a2.65,2.65,0,0,0-.1-.64c0-.27.12-.49.19-.49a1.83,1.83,0,0,0,.06,1c0-.14,0-.3,0-.44.15.82,0-.93.23-.38v.24c.08-.12.15-.44.23-.38,0,.53-.08.25-.09.69.12,0,.23-1,.33-.48,0,.15-.12.15-.17.3.11.63.13.47.21.57h0l.19.28,0-.17c.14-1.39.29-.25.49-1.17-.19.86,0,.5,0,1.11A1.39,1.39,0,0,1,39,31c.09-.49.15.39.28-.33,0,.2.1,0,.08.51.12-.15,0-.34,0-.58.18-.67.43.81.7-.11.23-.38.27-1,.48-1.36a1.59,1.59,0,0,1-.06.71c.12.29.2.23.31,0a1.84,1.84,0,0,0,0,.53c.09-.05.06-.71.17-.42s0,.57-.09.78c.1-.18.2-.54.31-.72a2.27,2.27,0,0,1-.1.74,1.21,1.21,0,0,0,.35-.85l-.08-.19s0,.46,0,.56c-.1.42-.15-.19-.15-.38l.08-.12c-.08-1.14-.3.18-.46.12l.06-.83-.16.69a2,2,0,0,1,0-.81c-.11-.41-.1.3-.19-.16a.32.32,0,0,1,0-.14l-.11.25c0-.17,0-.59,0-.47-.19-.48-.31.62-.38,0l0-.05c-.27.28,0,.61-.23,1.33l-.13-1.51,0,.61s-.08-.07-.07-.31c-.1.42,0,.27,0,.66-.13-.56-.36.26-.39-.71,0,.46.13.36,0,.68,0-1-.16.18-.28-.3,0-.54.15-.25,0-.74-.07.91-.23-.2-.34,0,0,.73-.22.3-.39.55,0-.24-.32-.4-.48-.66v-.12c0,.73-.19.6-.31.75a2.46,2.46,0,0,1,.09-.81h-.11a.79.79,0,0,1-.13.44l0-.55c-.15,0-.3.65-.49.28,0,.51.15,1.43-.05,1.77a3.62,3.62,0,0,1,0-.86s-.06.23-.1.11l.08-.47c-.09-.2,0,.39-.12.35,0-.4-.05-.28,0-.6,0,0,.06.16.09,0a1.11,1.11,0,0,1-.21-.6,1.36,1.36,0,0,1-.06.58c-.15,0-.05-.47-.14-.68,0,.27-.13,0-.13.58,0,0-.05-.28-.07-.44-.08.26-.36.07-.27.7l0,0v0h0c-.25.59-.53-.33-.78-.08v-.2c-.15.23-.33.13-.44.56a1.18,1.18,0,0,1-.09-.6c-.11.15-.13.37-.29,0,.12-.34,0-.31.12-.25-.15-.17-.18-.49-.34.05.05-.51-.11-.64-.18-.49l.1.36c-.08.07-.15,0-.22,0l0-.67c-.3-.81-.55,1.38-.78,0-.08.47.17.33.09.87-.14-.09-.29-1-.33-1-.19-.37-.18,1-.38.72a2.32,2.32,0,0,1-.1,1.09,2,2,0,0,1-.08-1.19s0,.06,0,.14a.55.55,0,0,0,0-.45l0,.24c-.07-.24-.26-.22-.22-.61a.49.49,0,0,0,0,.51c-.18-.34-.28,0-.47-.24a1.06,1.06,0,0,1,0,.41c-.27-.29-.12.45-.3.55-.1-.36,0-.86-.15-.56a1.45,1.45,0,0,1,0-.82c-.17.46-.32-.3-.41-.38l.09-.19c-.05.11-.1.11-.14.11l.05.47a.34.34,0,0,1-.1-.28,10.52,10.52,0,0,1-.07,1.21c-.07-.24-.21.26-.24-.37.22.21,0-.63.16-.73,0,.08-.08.07-.13,0a.36.36,0,0,1,0-.17c-.21-.56-.1.71-.31.7,0-.35-.05-.67-.09-.6s0,.59,0,.86c-.14-.28-.15.21-.22.17l.08.13c0,.35-.1.31-.19.42,0-.28.09-.19.05-.31-.11.62-.24-.65-.39-.23-.07-.24,0-.67-.07-.83-.17.46-.18-.49-.36-.11a1.33,1.33,0,0,1-.06.83l.29-.34-.19.69c.09,0,.19-.3.24-.22a1.16,1.16,0,0,0,0,.67c-.12-.72-.24.42-.38-.07V27.09c-.21-.53-.37.61-.64.31l.09.21c0,.47-.17.07-.26.26a3.33,3.33,0,0,0-.08-.78c0,.29-.2,0-.22.76l-.12-.52c-.22-.21-.25,1.13-.46,1,.06-.43,0-.71.11-1-.07,0-.13-.08-.13.2,0-.25-.19.53-.26.16,0,.17,0,.59-.12.55a1.31,1.31,0,0,1,0-.19,1.78,1.78,0,0,0-.05.7c-.22-1.23-.6.09-.79-1a1.28,1.28,0,0,1-.48.29c0-.12,0-.2,0-.16-.19-.37-.12,1.13-.34.72-.11-.64.12-.35,0-.59,0-1.3-.26.18-.41-.58l0-.08c-.11-.44-.27.49-.46.4a1.4,1.4,0,0,0,0-.2,1.76,1.76,0,0,1-.54,1.07,2.34,2.34,0,0,0,0-.79c-.08.07,0,.83-.13,1a4.73,4.73,0,0,1-.18-1.07l.15,0c-.08-.71-.19,0-.27-.1V27.3c-.23.1-.23.89-.48.83l0,.24c-.13.78-.11-.44-.25.14l0-.79a4.3,4.3,0,0,1-.47.91,5.75,5.75,0,0,1,.39-1.23c-.09,0-.3.06-.34.45,0-.08.08-.27.11-.15-.11.62-.25.93-.42.91,0-1.53-.46-.39-.58-1.57-.31.57-.61-.24-1-.15.13,1.19-.11,0-.08,1.26-.08.08-.12.06-.12,0l-.25-.73c-.06-.36.08-.27.07-.54-.18-.09-.08-.52-.2-.84,0,.44-.06.63-.17.46l.15.56c-.26.65-.22-1-.48-.38l.08-.38c-.13.23-.49,0-.62,1a1.3,1.3,0,0,1,0-.56c-.32-.15-.71,1-1,.44l0-.3c-.06.09-.1.56-.18.26,0-.12,0-.3,0-.32s-.16.52-.24.35l.07-.34c-.31-.39-.48.82-.73,1a1.75,1.75,0,0,0-.36-1.31v-.12c-.36-.11-.61.73-.95,1.08-.21-1-.7-.4-1-.94a1.75,1.75,0,0,1-.07.77c-.08-.18-.22.61-.2-.2l0,0c-.06-.79-.22-.58-.35-.6l0,1.06c-.33-1.54-.86.56-1-.81-.08.26-.18.26-.26.53v-.57c-.22-.14-.33-.22-.6-.08l.06-.4c-.15,0-.19,1.63-.33,1.67l0-.85c-.27,0-.54-.73-.8,0a1.07,1.07,0,0,1,.06-.4c-.13,0-.49-.57-.44.59,0-.76-.28-.07-.42.26l0-.56c-.12.71-.13.91-.3,1.1,0-.07,0-.45,0-.3-.13-.29-.1.53-.27.23l.06-.36c-.14,0-.13.15-.2.56C9.15,28.41,9,28,9,27.54c0,.31-.09.72-.18.57a1.11,1.11,0,0,1,0-.37c-.23-.38-.34.65-.5.1a1.69,1.69,0,0,0,0-.33c.18,0,.33,0,.32.08a4.67,4.67,0,0,1,0-1.31c-.12.39-.32,1.23-.47,1,0,0,0-.1,0-.18V27c0-.05-.06,0-.09.08C8,27,7.93,27,7.89,27c0-.42-.17-.23-.24-.25,0,.56-.09.47,0,.94,0,0,0-.07.06-.09a.13.13,0,0,0,0-.06v0l.18,0c-.06.29-.12.53-.2.21,0,.36-.08.73-.1.91-.1-.78-.3-1.21-.32-1.69-.23.32-.53.21-.67,1.26-.06.14-.07-.3-.1-.47s.08-.09.1-.24c-.13.27-.38.11-.41.84-.16-.33.09-.68-.13-.56l0-.23c-.44-1.18-.71,1.88-1.19.37a.72.72,0,0,1,.06.26c-.55-.67-1.14.63-1.68-.43-.15-.21-.17.26-.27.62l0-.6-.16.7C2.6,29,2.43,27,2.14,28l0,.41c-.1-.08-.33.24-.31-.23,0,.07,0,.42-.07.21V28l-.26.54c-.2-.23,0-1.25-.26-1.32A2.76,2.76,0,0,0,1,28.38s.11.2.11.51l-.1.16a7.81,7.81,0,0,0,.15,2.54L1.34,31l.05.45-.14,0c.08.42.13,0,.19-.21a2,2,0,0,0,.07.5l.17-.89c0,.36-.07.72,0,.92.08-.41-.07-.82.05-1.09.08.42.06.77.15.41a1.3,1.3,0,0,1,0,.5c.08-.29.22-.12.27-.62.08.52.28-.14.28.75A1.91,1.91,0,0,1,2.64,31c-.14,1.06.29.06.25,1.19.1-.95.38-.42.56-.95,0,.08,0,.23,0,.18s.13.36.2.54a5.6,5.6,0,0,1,.26-1.45,10.26,10.26,0,0,1,0,1.65c0-.64.22-.63.18-1.16a3.46,3.46,0,0,1,.13.88c0-1,.09-.17.17-.77.14.48,0,.92.19.62A1.24,1.24,0,0,1,4.45,32.43Zm3.69-1.69h0l-.08,0Zm.31,0a.23.23,0,0,0-.13,0c0-.19,0-.39,0-.38A1.1,1.1,0,0,0,8.45,30.72Zm-.66-3.9c0-.08.07,0,.07.15a.26.26,0,0,0-.09.07v.07C7.78,27,7.79,26.9,7.8,26.83Z"/><path class="cls-1" d="M7.71,27.57s0,0,0,0l0,.13,0-.18Z"/><path class="cls-1" d="M35.84,28.4h0a.49.49,0,0,1,0,.08S35.84,28.42,35.84,28.4Z"/><polygon class="cls-1" points="12.74 31.8 12.74 31.66 12.71 31.78 12.74 31.8"/><path class="cls-1" d="M37.54,30.33a.68.68,0,0,0,0,.14A.91.91,0,0,0,37.54,30.33Z"/><path class="cls-1" d="M38.28,30.46l.1.2A.75.75,0,0,0,38.28,30.46Z"/><path class="cls-1" d="M38.85,30.73c0-.1,0-.17,0-.24h0Z"/><path class="cls-1" d="M29.83,31.39l0,0C29.75,31.53,29.79,31.49,29.83,31.39Z"/><path class="cls-1" d="M32.51,30.08a2,2,0,0,1-.09.27S32.51,30.4,32.51,30.08Z"/><path class="cls-1" d="M26.83,32.07h0Z"/><path class="cls-1" d="M32.3,30.34c0,.11.09.09.12,0S32.34,30.25,32.3,30.34Z"/><path class="cls-1" d="M41.31,31l0,0a.88.88,0,0,1,0-.09Z"/><path class="cls-1" d="M41.34,30.92l0-.07S41.34,30.86,41.34,30.92Z"/><path class="cls-1" d="M41.43,30.71l-.06.14S41.42,30.87,41.43,30.71Z"/><path class="cls-1" d="M40.56,30.73v.2S40.56,30.82,40.56,30.73Z"/><path class="cls-1" d="M40.33,30.79c.05,0,.14.43.21.31v-.16C40.51,31.24,40.38,30.44,40.33,30.79Z"/><path class="cls-1" d="M39.38,28.27l.19.16c0-.22-.08-.51,0-.56C39.34,27.22,39.63,28.36,39.38,28.27Z"/><path class="cls-1" d="M38.78,28c.1-.1,0-.32,0-.44A.48.48,0,0,0,38.78,28Z"/><path class="cls-1" d="M34.5,28v-.51C34.43,27.51,34.51,27.64,34.5,28Z"/><polygon class="cls-1" points="33.68 30.59 33.75 30.91 33.79 30.44 33.68 30.59"/><polygon class="cls-1" points="33.19 26.95 33.23 26.88 33.09 27.06 33.19 26.95"/><path class="cls-1" d="M26,27.13l0,.63C26.07,27.65,26.08,26.94,26,27.13Z"/><path class="cls-1" d="M22.88,27.77c0-.31-.12-.52-.18-.21C22.78,27.61,22.85,27.86,22.88,27.77Z"/><polygon class="cls-1" points="13.56 26.75 13.62 26.54 13.51 26.71 13.56 26.75"/></g></g></svg>