<svg xmlns="http://www.w3.org/2000/svg" viewBox="0 0 90 35"><defs><style>.cls-1{fill:#e5f9f9;}.cls-2{fill:none;stroke:#788274;stroke-miterlimit:10;}</style></defs><title>Pearl2Text</title><g id="Layer_2" data-name="Layer 2"><g id="nav"><rect class="cls-1" width="90" height="35" rx="12" ry="12"/><path class="cls-2" d="M15,23c-.19-7.37,1.85-12.74,4-13s5.49,4.55,7,12"/><line class="cls-2" x1="16" y1="15" x2="26" y2="15"/><path class="cls-2" d="M30,6l1,14h0c-.54-3,1.1-5.59,3-6,2.39-.52,5,2.4,5,5,0,3.41-2.56,5.22-5,4a6.41,6.41,0,0,1-3-3"/><path class="cls-2" d="M48.19,13.95c-2.06-.91-5.5,1.18-6,4-.56,3.16,2.71,6.41,5,6,2-.37,3.17-3.59,3-6C50.16,17.48,50,14.73,48.19,13.95Z"/><path class="cls-2" d="M53,14a8,8,0,0,0,1,6c.88,1.33,3,3.54,5,3s2.65-3.45,3-5a11.63,11.63,0,0,0,0-5l2,10"/><path class="cls-2" d="M66,16l6-1"/><path class="cls-2" d="M69.5,9.5c-3.09,6.27-3.2,11.52-1,13,.43.29,1.56.85,4,0"/></g></g></svg>