<svg xmlns="http://www.w3.org/2000/svg" viewBox="0 0 33.03 32.77"><defs><style>.cls-1{fill:#dbdbdb;}</style></defs><title>PearlQ</title><g id="Layer_2" data-name="Layer 2"><g id="nav"><path class="cls-1" d="M31.41,16.33c.09.05.28,0,.24-.11l-.34-.09Z"/><path class="cls-1" d="M32,15.4a.72.72,0,0,0-.76-.18c.32.13.19.18.58.32,0,.14-.09.24-.22.22.09,0-.06.21.15.28a.38.38,0,0,0,0-.64C31.82,15.35,31.91,15.39,32,15.4Z"/><path class="cls-1" d="M25.72,3.67l.05.09A.18.18,0,0,0,25.72,3.67Z"/><path class="cls-1" d="M17.62.74c.07,0,.1,0,.1-.07S17.61.71,17.62.74Z"/><path class="cls-1" d="M16.12.34l.09,0S16.14.32,16.12.34Z"/><path class="cls-1" d="M25.72,3.67l-.13-.22C25.51,3.53,25.64,3.58,25.72,3.67Z"/><path class="cls-1" d="M31,13.7a.26.26,0,0,0,.1.1L31,13.7Z"/><path class="cls-1" d="M28.79,6l0,.05L29,6Z"/><path class="cls-1" d="M30.61,8.36c0-.06-.28.06-.4.11a.27.27,0,0,1,.24,0A.69.69,0,0,0,30.61,8.36Z"/><path class="cls-1" d="M31.94,12.85l.06.07Z"/><path class="cls-1" d="M27.3,4.46a.31.31,0,0,0,0-.09A.22.22,0,0,0,27.3,4.46Z"/><path class="cls-1" d="M30.41,19.31h0S30.41,19.29,30.41,19.31Z"/><polygon class="cls-1" points="32.15 16.33 32.16 16.38 32.31 16.39 32.15 16.33"/><path class="cls-1" d="M13.28.28h0C13.36.24,13.32.25,13.28.28Z"/><path class="cls-1" d="M.31,19.81c.17-.34.43.38.6-.1C.81,19.78.37,19.42.31,19.81Z"/><path class="cls-1" d="M31,13.63a.66.66,0,0,1,0-.11A.19.19,0,0,0,31,13.63Z"/><path class="cls-1" d="M.9,19.71h0v0Z"/><path class="cls-1" d="M7.29,2.86a.38.38,0,0,0,.12.07A.24.24,0,0,0,7.29,2.86Z"/><path class="cls-1" d="M11.81,1.22h0Z"/><path class="cls-1" d="M5.56,4.7c-.06,0-.1,0-.14.1h0S5.47,4.72,5.56,4.7Z"/><path class="cls-1" d="M3.78,6.55h.07l0-.07Z"/><path class="cls-1" d="M27.43,25.32a1,1,0,0,1,.26.09C27.51,25.31,27.69,25,27.43,25.32Z"/><path class="cls-1" d="M31.11,13.67c-.07,0-.11,0-.13,0l0,.07A.16.16,0,0,0,31.11,13.67Z"/><path class="cls-1" d="M7,6.42l-.29.2A1.39,1.39,0,0,0,7,6.42Z"/><path class="cls-1" d="M12.66,29.65h.09A.08.08,0,0,0,12.66,29.65Z"/><path class="cls-1" d="M6,7.4a.55.55,0,0,0-.28,0,.23.23,0,0,0,0,.08Z"/><path class="cls-1" d="M27.69,25.42h0Z"/><path class="cls-1" d="M28.53,23.14c-.18.27.22.32.36.5-.13.41-.33,0-.56,0,0,.27.11.61,0,.76-.06,0-.1,0-.13-.09.06.39-.46.65-.4,1.12l-.1,0a1.54,1.54,0,0,1,.42.3c-.1.12,0,.37-.25.26.07-.07,0-.14,0-.22l0,.19c-.36-.13.07-.25-.12-.42-.13.3-.19.78-.43.9-.27-.2.31-.5-.13-.47l.35-.19c-.59-.16.18-.14-.42-.34-.41.27-.22.54-.66.77,0,.21.22.18.26.39-.32.72-1-.28-1.06.39,0,.25.25.63-.19.66l-.13-.38c-.4.24.1.61-.46.69,0-.18.23-.33.15-.32-.43-.06-.06.32-.27.46l-.23-.26c-.41.28-.74.83-1.25,1.11,0-.1,0-.24-.14-.28a2.64,2.64,0,0,1-1,.47,8,8,0,0,1-1.1.11l-.16.36a.12.12,0,0,1-.1-.17c-.29,0,0,.18-.05.32a.15.15,0,0,1-.17-.22c-.37.36-1.19.85-1.74.59l.08-.1c-.39-.06-.36.66-.75.44l.06-.06c-.85-.07-1.8.25-2.42-.26-.15.42-.81-.22-.92.33-.44-.36-.29-.45-.92-.74-.17,0-.33.32-.56.32l.06-.3L13,30l-.07-.4-.22,0a.24.24,0,0,1,.1.26c-.36.06-.72-.4-.67-.57h-.8c.06-.11.19-.11.32-.15-.49.16,0-.33-.41-.18,0,.08-.09.16-.12.22a1.23,1.23,0,0,0-.8-.47l.14-.17c-.49-.26-1.09-.44-1.64-.77.14.2-.09.49-.28.42l.11-.31c-.21.11.11.2-.24.28-.19-.16.06-.39.24-.41l-.3-.07c0-.09.12-.09.21-.19-.21.1-.21-.56-.55-.37l0-.09c-.51-.35-.78-.47-1.18-.8-.2.2-.31,0-.58.08a5.23,5.23,0,0,0-.67-1.12c-.33-.14-.25.09-.47.09.18-.19-.12-.53.17-.46a7.59,7.59,0,0,0-1-1c0,.12,0,.22-.13.23a.24.24,0,0,1,0-.36h0c-.79-.48-.24-1.92-1-2.24l0,0-.49-.5c-.06-.29.24.1.31-.16-.68-.5-.26-1.06-.69-1.53a1,1,0,0,0,.13-1.06,4.64,4.64,0,0,1-.15-.59.83.83,0,0,1,.14-.53l-.18,0c-.18-.14.09-.19.13-.3-.14,0-.15.17-.25.08a4.3,4.3,0,0,1,.1-2,18.68,18.68,0,0,1,.7-1.89c.17-.44-.82-.51-.24-1l.26.27A3.27,3.27,0,0,1,3.47,11,4.8,4.8,0,0,0,4,9.59c0,.09.12.14.07.22.32-.05.41-.62.25-.74.1-.12.17.07.3,0s0-.61.29-.55c0,0,0,.09,0,.13,0-.17.4-.47.1-.53.33-.2.31-.64.65-.74-.1-.35.53-.35.26-.7.3.33.69-.2.74-.5,0,.15.25,0,.3.17.19-.17.31-.4.13-.54.68.09.52-.94,1.14-.55a5.27,5.27,0,0,1,.78-.87,5.31,5.31,0,0,1,.86-.7c.17.4-.68.4-.42.81.47-.5.69-1,1.34-1.18.18,0,0,.22,0,.32.55-.42,1.21-.43,1.72-.82,0,0,0,.1-.09.15.11,0,.28,0,.22-.2l-.1.08c-.27-.24.3-.72.29-.87-.06.62.63,0,.47.8a.29.29,0,0,0,.1-.3c.12,0,.17.08.09.26.39-.21.21-.37.59-.43,0,.1-.06.15-.08.27.16-.22.33-.44.67-.41,0,.06,0,.13-.06.15.54-.13.92-.59,1.56-.45-.17.44.22.13.25.5a2.35,2.35,0,0,1,.33-.11l-.13-.19c.29,0,.56-.24.81-.1l-.23.14.55,0-.3-.16c.31-.18,0-.47.39-.35-.09,0,.31,0,.44.26h0a.48.48,0,0,1,.54-.07c0,.13-.1.4-.08.49.19-.28.69,0,.94-.28a.44.44,0,0,0-.1.3l.17-.22c.12.11.13.16.07.3.39.15,0-.49.41-.18,0,0,0,.05-.12.07.45.23,1,.06,1.37.35,0,.4-.4,0-.35.31.62.15,1.42,0,2,.38L23,3.22c.31-.44.32.44.71.35-.09,0-.23.22-.18.17A4.37,4.37,0,0,0,25,4.25l-.14.07c.15.24.5.45.69.65.15-.06.26,0,.3-.17a1.23,1.23,0,0,0,.84.91c.38.16.76.33.78.84-.06-.06-.23-.07-.18,0l.53.38c.14-.19,0-.15.09-.38a.55.55,0,0,1,.48.15c-.32-.12-.28.25-.29.42,0-.06.13-.08.18-.14-.1.53.39-.25.47.29l-.11.06c.15.1.38.13.47.3-.17.22-.21-.07-.4.05.16.2.74.11.65.47A3.66,3.66,0,0,0,29,7.93a.61.61,0,0,0,0,.55v0l.11.45V8.77c.75-.09.48.48,1.07.65-.57-.18-.25.06-.53.17,0,.14,0,.33-.13.33.31.07,0,.39.43.48-.08.05.09.2-.15.26.19.2.13-.13.25-.16.51.24,0,1,.63,1.42.34.42.66.43,1,.87-.11.2-.38,0-.38,0a.74.74,0,0,0,.17.69c-.09,0-.15,0-.25.13.06.19.37.06.27.35a1.5,1.5,0,0,1-.42-.12c.12.21.34.4.46.63-.16.09-.28-.11-.4-.17.11.25.27.66.53.72,0-.06.06-.12.08-.18,0,.1-.22.07-.28,0-.25-.2,0-.34.14-.37l.09.16c.54-.25-.2-.68-.22-1l.43.07-.4-.29c.09-.1.3-.2.4,0,.14-.3-.2-.19,0-.45,0,0,.05,0,.07,0l-.19-.21c.1,0,.27-.11.26.05.11-.51-.49-.63-.23-.88l0,0c-.34-.56-.31,0-.81-.29l.6-.56-.31.05c0-.06,0-.19.08-.22-.28-.15-.11.09-.34,0,.16-.41-.46-.72-.05-1-.26,0,0,.34-.32.12.43-.32-.25-.3-.16-.67.28,0,.27.27.36-.11-.47.06-.18-.55-.39-.71-.32.18-.41-.37-.73-.65.13-.06-.3-.73-.44-1.12l.05,0c-.33.17-.51-.19-.77-.34A.42.42,0,0,1,29,6.24L28.84,6A.45.45,0,0,1,28.45,6l.25-.14c-.27-.25-.71-.33-.94-.76-.19.17-.22.75-.69.57.08-.11.23-.3.36-.26,0,0-.19,0-.21-.11l.3,0c-.09-.21-.21.07-.32-.05.13-.15,0-.19.12-.29s.06.16.16.14a.77.77,0,0,1-.18-.56c-.06.1-.17.2-.29.13-.28-.23.06-.26,0-.48-.16.05-.26-.19-.44,0-.08-.06,0-.18,0-.27-.23,0-.74-.49-.74-.1l0,0h0c-.64-.12-1-.8-1.56-1l0-.09c-.37-.06-.76-.28-1.08-.2a.27.27,0,0,1-.07-.36c-.28-.05-.34,0-.66-.25.33-.07,0-.17.32,0-.31-.2-.34-.38-.79-.25.21-.19-.16-.39-.35-.38l.19.26a2,2,0,0,1-.51-.18L21.49,1C20.85.46,20,1.35,19.6.6c-.24.2.37.22.15.46C19.42,1,19.14.45,19,.43c-.45-.25-.5.4-1,.24a.38.38,0,0,1-.28.53c-.33-.06-.38-.52-.16-.6s.12,0,.11.07.26-.08.14-.22l-.05.12c-.16-.13-.64-.14-.52-.33-.27.1-.12.19.07.26-.44-.18-.69-.06-1.15-.14.07.06.14.2.07.2-.67-.12-.29.24-.73.31-.26-.17.06-.44-.38-.26C14.89.5,15.09.3,15.2.2c-.4.23-.8-.06-1.05-.07L14.36,0A.84.84,0,0,1,14,.11l.16.22c-.14,0-.25,0-.26-.1-.11.17.16.38-.07.62-.19-.09-.49.2-.61-.09.55,0-.12-.3.33-.42a.48.48,0,0,1-.33,0s0-.07,0-.09c-.58-.17-.17.4-.69.52,0-.19-.2-.3-.28-.24.22-.05.17.26,0,.44-.37-.05-.33.19-.51.22H12c0,.19-.19.19-.39.33-.06-.13.17-.16.08-.19-.15.38-.66-.11-.94.21-.2-.06-.13-.31-.31-.33-.31.35-.52-.07-.86.3.21.16.21.1,0,.44.19-.15.39-.31.59-.45-.1.16-.19.34-.28.51.19-.09.35-.33.49-.33-.13.25-.13.19,0,.34-.41-.22-.44.43-.84.34l-.24-.54c-.6,0-.7.66-1.34.88l.24,0c0,.25-.34.24-.47.43C7.72,3,7.56,3,7.42,2.93c.08.11-.42.27-.24.63l-.39,0c-.5.25-.18.79-.59,1.07,0-.27-.29-.22-.12-.57-.13.11-.27.19-.19.3-.16,0-.19.52-.43.48,0,.11.13.28,0,.39a.14.14,0,0,1-.07-.07c.07.07-.13.29.14.34-.8-.06-1,1.06-1.65,1.08a10.13,10.13,0,0,1-.6,1c0-.05-.08-.06,0-.1-.42.28.31.56-.14.88-.41.06,0-.33-.19-.25-.59-.28-.27.59-.78.71,0,0,0-.07,0-.1-.32.14-.09.72-.33,1.1a.15.15,0,0,0-.09,0,3.31,3.31,0,0,1,0,1.41c-.19-.21-.06-.23-.33-.24,0,.19.41.1.34.47-.17.07-.39.28-.66.24l.11-.35c-.41.06-.16.45-.25.62l-.14-.07c-.1.57.28.67.1,1.24L1,13c.3.39-.27.22,0,.59l-.4,0a7.89,7.89,0,0,1,.28,1.18c-.28-.24-.34-.71-.47-1,0,.21-.09.74.09.87,0-.09-.1-.21,0-.29A1.44,1.44,0,0,1,.8,15.48C0,15.37.54,16.57,0,16.9a2.5,2.5,0,0,1,.12,1.17A6,6,0,0,0,.2,19.34c.53-.43.06.26.65.08.08.19.1.27.06.29l-.19.69c-.13.19-.18-.16-.31-.1.07.46-.2.26-.27.6.2-.12.34.07.34.35,0-.15.11-.3.17-.44.47.52-.31.69.22,1.21l-.25-.13c.21.28.45,1.19,1.06,1.25,0,.08-.15.23-.26.11.27.79,1.32,1.29,1.39,2l-.16,0c.11.11.37.05.37.29-.06,0-.16,0-.12.1s.45.16.5.36l-.24,0c.32.76,1.07.67,1.58,1.05-.32.3,0,.86.19,1.11l-.05,0a3.22,3.22,0,0,0,1,.67c.38.14.76.23,1.15.4.06.36.41.64.82.89A13,13,0,0,1,9,31c-.08-.13.17-.3.32-.28s.61-.05.42.3l-.06,0c0,.43.39.5.69.61l.24-.48a1.45,1.45,0,0,0,1.28.67c.5,0,.94.06,1.09.45a6.12,6.12,0,0,0,.68-.15l-.06.28a4.21,4.21,0,0,0,1.5.23l-.16.19c.39,0,.55-.79.89-.79l.09.43c.66.05,1.36.35,2-.06,0,.06,0,.19-.12.21.32,0,1.26.15,1.06-.41.06.37.69-.06,1-.28v.28c.23-.42.21-.52.59-.71.1,0,.14.2,0,.16.35.06.18-.32.6-.27l-.1.21c.33-.06.28-.14.4-.39a.55.55,0,0,1,.75.08c0-.16.1-.41.31-.41a.17.17,0,0,1,0,.2c.61,0,.65-.61,1.11-.52a.23.23,0,0,0,.13.12,4,4,0,0,1-.72.29c.1.24.45.12.32.58.21-.31.49-.9.86-.94l.08.06,0,0a.26.26,0,0,0,.19-.13.66.66,0,0,0,.3-.07c.14.17.43-.12.59-.2-.15-.23.07-.32-.24-.4,0,0,0,0-.11.12a.21.21,0,0,0-.05.06v0l-.38.25c.06-.2.12-.38.37-.34,0-.2,0-.41,0-.52.4.21.94.16,1.12.31.36-.47,1-.85,1-1.49.07-.15.23,0,.33,0s-.12.17-.11.26c.15-.31.67-.66.47-1,.41-.14.07.39.43,0l0,.13c.59-.17.72-.67.87-1.14s.24-1,.91-1.19c-.09,0-.13.06-.19,0a4.66,4.66,0,0,0,1.13-1.7,6.22,6.22,0,0,1,1-1.78c.23-.32,0-.44-.06-.71l.32,0c-.06-.16-.15-.32-.22-.48-.13-.59,1-.74.64-1.55l-.21.05c.08-.24,0-.8.23-.73,0,0-.2-.11-.08-.19h.16a4.34,4.34,0,0,0-.21-.64c.14-.47.62.13.69-.59,0-.28-.42-.76-.53-.66a.31.31,0,0,1-.27.27l-.07-.23c-.46,0-.93-.2-1.29.31l.27.38-.23.1v-.31c-.22.16,0,.28.08.41a.38.38,0,0,0-.26.13l.42.4c-.19,0-.33-.19-.47,0,.18.19.43-.11.52.18-.24.15-.4.07-.25.3a.21.21,0,0,1-.23-.13c.11.2,0,.48.21.62-.27.13,0,.63-.48.51a.88.88,0,0,1,.23.56c-.43-.43-.19.6-.71.36.39.36-.08.82,0,1.29,0,0-.08-.11,0-.13-.12.19-.26.2-.41.29.35.18.27.54.4.82-.46.08-.34-.36-.7-.44.29.13.07.57.35.61-.3.08-.18.11-.51.05.42.27,0,.21.15.51-.37.14-.44-.17-.49.19C28.53,23.48,28.53,23.14,28.53,23.14ZM23.26,29h0l.15-.09Zm-.62.3.28-.12c.06.08.08.18,0,.2S22.76,29.35,22.64,29.32Zm2.26,1.05c-.09.1-.15.07-.19,0l.17-.14v0A.45.45,0,0,1,24.9,30.37Z"/><path class="cls-1" d="M24.9,29.94s0,0,0,0l-.09,0V30Z"/><path class="cls-1" d="M25.78,3.77h0a.11.11,0,0,1,0,.05A.22.22,0,0,1,25.78,3.77Z"/><polygon class="cls-1" points="13.41 29.7 13.4 29.77 13.47 29.72 13.41 29.7"/><path class="cls-1" d="M28.09,7.12a.14.14,0,0,0,0,.08A.16.16,0,0,0,28.09,7.12Z"/><path class="cls-1" d="M29,8.48l0,.25A1,1,0,0,0,29,8.48Z"/><path class="cls-1" d="M29.59,9.63l.12,0h0Z"/><path class="cls-1" d="M12.42,3l0,0C12.29,3.11,12.35,3.07,12.42,3Z"/><path class="cls-1" d="M18.29,1.86,18.08,2C18.19,2,18.27,2,18.29,1.86Z"/><polygon class="cls-1" points="7 6.39 7 6.39 6.97 6.42 7 6.39"/><path class="cls-1" d="M17.8,1.94a.3.3,0,0,0,.28,0A.44.44,0,0,0,17.8,1.94Z"/><path class="cls-1" d="M31.11,14.81v.06h0Z"/><path class="cls-1" d="M31.15,14.87l0,.06S31.19,14.87,31.15,14.87Z"/><path class="cls-1" d="M31.27,15.07l-.08-.13S31.19,15,31.27,15.07Z"/><path class="cls-1" d="M30.94,13.15h0Z"/><path class="cls-1" d="M30.79,12.67c0,.12-.13.35,0,.49h.08C30.67,13.12,31,12.74,30.79,12.67Z"/><path class="cls-1" d="M31.24,10.17a3.81,3.81,0,0,1,.1.46c.07-.12.17-.27.27-.09C31.69,9.87,31.44,10.75,31.24,10.17Z"/><path class="cls-1" d="M30.73,8.82c.17.19.14-.08.2-.1C30.75,8.63,30.71,8.61,30.73,8.82Z"/><path class="cls-1" d="M23.06,2l.12-.22C23,1.74,23.14,1.88,23.06,2Z"/><path class="cls-1" d="M20.82,2.62l.12.19.15-.2Z"/><polygon class="cls-1" points="20.14 0.57 20.24 0.56 19.89 0.57 20.14 0.57"/><path class="cls-1" d="M3.88,6l.28.16C4.21,6.06,4,5.81,3.88,6Z"/><path class="cls-1" d="M.72,13c-.18,0-.32.24-.19.4C.58,13.21.73,13.07.72,13Z"/><polygon class="cls-1" points="10.88 31.59 10.69 31.64 11 31.66 10.88 31.59"/></g></g></svg>