<svg xmlns="http://www.w3.org/2000/svg" viewBox="0 0 90 35"><defs><style>.cls-1{fill:#fcfae6;}.cls-2{fill:none;stroke:#788274;stroke-miterlimit:10;}</style></defs><title>Pearl1Text</title><g id="Layer_2" data-name="Layer 2"><g id="nav"><rect class="cls-1" width="90" height="35" rx="12" ry="12"/><path class="cls-2" d="M19.34,12.34c-3.4-2.64-6.42-4-8.91-1.61-3.41,3.34-2.1,9,1.32,11.35a7.82,7.82,0,0,0,3.83,1.14c2.39.16,2.3-1.25,3.11-1.68"/><path class="cls-2" d="M27.19,14.95c-2.06-.91-5.5,1.18-6,4-.56,3.16,2.71,6.41,5,6,2-.37,3.17-3.59,3-6C29.16,18.48,29,15.73,27.19,14.95Z"/><path class="cls-2" d="M33,15.5v7.65c.12-4.58,2.52-7.65,4.29-7.65s4.17,3.07,4.29,7.65"/><path class="cls-2" d="M44,17l6-1"/><path class="cls-2" d="M47.5,10.5c-3.09,6.27-3.2,11.52-1,13,.43.29,1.56.85,4,0"/><path class="cls-2" d="M61,24c-1.43.42-6,1-7,0s-1.64-2.86-1-4c1.27-2.26,7.48-.81,7-2-2.1-5.21-5.52-2.81-7,1"/><path class="cls-2" d="M64,16.5v7.65c.12-4.58,2.52-7.65,4.29-7.65s4.17,3.07,4.29,7.65"/><path class="cls-2" d="M75,16l6-1"/><path class="cls-2" d="M78.5,9.5c-3.09,6.27-3.2,11.52-1,13,.43.29,1.56.85,4,0"/></g></g></svg>