<svg xmlns="http://www.w3.org/2000/svg" viewBox="0 0 31.67 31.91"><defs><style>.cls-1{fill:#fcfae6;}</style></defs><title>Pearl1</title><g id="Layer_2" data-name="Layer 2"><g id="nav"><path class="cls-1" d="M31.67,16.07a16.32,16.32,0,0,1-4.3,11.14,14.83,14.83,0,0,1-11.3,4.69A16.42,16.42,0,0,1,10,30.47,17.58,17.58,0,0,1,5,27,16.31,16.31,0,0,1,0,16.07,14.94,14.94,0,0,1,4.55,4.7,16.18,16.18,0,0,1,22.27,1.28,14.78,14.78,0,0,1,27.39,4.9,16.32,16.32,0,0,1,31.67,16.07Zm-.2,0a12.85,12.85,0,0,0-1.37-5.71,14.17,14.17,0,0,0-3.62-4.5A16.34,16.34,0,0,0,16.07,2.13,15.3,15.3,0,0,0,5.85,6.06a14.57,14.57,0,0,0-4.73,10A13.26,13.26,0,0,0,5.42,26.52a14.89,14.89,0,0,0,10.64,3.71A17.35,17.35,0,0,0,26.5,26.3a14.37,14.37,0,0,0,3.61-4.52A12.76,12.76,0,0,0,31.47,16.07Z"/></g></g></svg>