<svg xmlns="http://www.w3.org/2000/svg" viewBox="0 0 90 35"><defs><style>.cls-1{fill:#f0f1f2;}.cls-2{fill:none;stroke:#788274;stroke-miterlimit:10;}</style></defs><title>pearlHomeText</title><g id="Layer_2" data-name="Layer 2"><g id="nav"><rect class="cls-1" width="90" height="35" rx="12" ry="12"/><line class="cls-2" x1="19.5" y1="7.5" x2="19.5" y2="24.5"/><line class="cls-2" x1="19.5" y1="17.5" x2="30.5" y2="17.5"/><line class="cls-2" x1="29.5" y1="7.5" x2="30.5" y2="25.5"/><path class="cls-2" d="M39,16.67c-1.81-.8-4.83,1-5.27,3.51-.49,2.77,2.38,5.63,4.39,5.27,1.78-.32,2.79-3.16,2.63-5.27C40.68,19.77,40.51,17.36,39,16.67Z"/><path class="cls-2" d="M68.5,24.5c-1.43.42-6,1-7,0s-1.64-2.86-1-4c1.27-2.26,7.48-.81,7-2-2.1-5.21-5.52-2.81-7,1"/><path class="cls-2" d="M43.5,17v7.65c.1-4.58,2.12-7.65,3.61-7.65s3.51,3.07,3.61,7.65"/><path class="cls-2" d="M50.23,24.65c.1-4.58,2.12-7.65,3.61-7.65s3.51,3.07,3.61,7.65"/></g></g></svg>